<?xml version="1.0" encoding="utf-8" ?><svg xmlns="http://www.w3.org/2000/svg" xmlns:xlink="http://www.w3.org/1999/xlink" width="1024" height="1024" viewBox="0 0 1024 1024"><path fill="#1E2C3A" d="M0 0L1024 0L1024 1024L0 1024L0 0Z"/><defs><linearGradient id="gradient_0" gradientUnits="userSpaceOnUse" x1="456.75571" y1="807.44464" x2="548.47638" y2="172.99988"><stop offset="0" stop-color="#000105"/><stop offset="1" stop-color="#102034"/></linearGradient></defs><path fill="url(#gradient_0)" d="M458.786 526.407C479.954 491.393 500.683 451.233 530.9 422.968C541.241 413.295 564.794 400.882 577.772 393.121L631.324 360.713L747.979 289.74L824.894 243.198L856.902 223.604C863.095 219.838 873.748 212.037 880.961 212.006C889.374 211.969 896.015 226.719 898.374 233.675C907.416 260.331 910.512 288.778 913.467 316.642C914.009 321.768 915.214 333.94 914.1 338.563C913.027 341.793 904.37 346.126 905.184 352.463C905.486 354.811 904.384 359.812 905.779 361.769C906.563 357.293 905.113 350.369 908.682 346.281C908.995 345.927 909.316 345.58 909.645 345.24L909.923 345.266L908.919 346.969L909.635 347.499C910.792 349.109 910.815 349.106 911.503 350.948C913.028 350.224 913.391 349.704 914.743 349.925C916.2 356.424 914.921 365.314 915.853 370.479C915.915 372.057 916.074 372.476 915.453 373.921L915.049 374.146C915.67 376.329 916.082 404.11 914.501 408.026C914.404 408.267 913.144 409.479 912.798 409.798L912.844 410.464C911.237 410.882 912.069 410.82 910.253 410.342C908.683 408.877 908.781 408.923 907.98 406.889C907.269 408.028 907.891 409.702 908.354 410.799L907.615 410.963L907.132 412.627L908.186 414.065C909.125 415.585 910.011 416.671 910.235 418.42L909.38 418.015C908.673 416.69 908.117 415.63 907.282 414.365L906.58 414.787C907.46 417.636 908.413 419.07 907.254 421.502C905.366 422.36 906.275 422.312 904.476 421.982C895.894 426.362 886.263 432.506 877.837 437.396C873.219 440.076 863.29 445.836 859.415 448.969C848.711 443.617 840.193 442.761 828.611 446.606C809.639 452.905 792.81 469.243 782.528 486.028C778.682 492.306 775.541 499.832 771.999 506.341C768.741 507.411 760 513.036 756.676 515.014L730.584 530.406L597.514 610.26C582.753 619.117 567.865 627.795 553.398 637.113C551.758 638.169 549.772 639.548 547.986 640.324C546.14 638.882 547.131 624.318 547.109 621.255L547.044 581.254C547.069 573.363 546.489 567.799 545.939 560.126C545.65 556.096 546.053 549.096 545.956 544.493C544.323 555.727 545.523 562.891 545.57 574.169L545.522 622.617C545.527 624.077 545.753 641.814 545.229 642.556C541.9 647.272 518.661 659.496 512.906 664.379C512.119 665.047 510.911 664.958 510.022 665.403C507.783 666.854 503.463 670.468 501.018 671.167L500.407 670.687C496.045 672.697 486.894 679.062 482.313 681.825C468.904 689.912 454.525 700.019 440.934 707.57C434.915 705.059 432.567 704.719 426.005 703.929C426.05 691.278 426.262 678.212 425.904 665.599C430.15 663.07 433.57 661.177 437.373 657.958C442.462 661.351 447.382 664.965 453.226 666.804C458.376 664.78 468.109 660.072 468.403 653.707C468.75 646.16 468.471 638.241 468.493 630.631C478.415 623.917 490.388 616.166 499.13 608.233L498.852 607.708C499.345 606.744 506.943 600.397 508.55 598.777C515.544 591.727 522.492 583.956 526.506 574.726C527.846 571.647 532.009 561.554 531.388 558.781L530.864 558.797L529.322 560.585C527.566 575.671 513.182 592.85 502.14 602.602L501.815 601.67C492.429 608.694 483.114 615.79 473.602 622.663C471.617 624.097 470.033 625.528 467.607 624.51L467.307 623.511C468.378 619.934 477.823 614.393 481.183 612.044C493.418 603.489 509.058 593.132 517.288 580.57L516.887 579.897L517.269 579.323C530.757 558.823 527.327 535.709 528.801 512.484C529.048 508.585 529.269 502.929 527.295 499.531L527.21 499.739L526.701 499.388C525.994 502.27 526.843 511.276 526.598 515.528C525.624 533.369 528.73 555.24 520.155 571.341C517.798 575.766 513.753 582.792 510.292 586.292C506.15 590.481 478.557 612.481 474.754 612.519C472.063 609.363 476.625 594.53 473.234 591.834L472.551 591.955C472.296 598.012 472.84 610.673 472.427 615.216C471.15 616.181 468.263 617.845 467.309 617.177C461.376 613.026 455.473 607.295 448.926 603.848C441.904 600.151 438.014 609.254 434.905 604.574C435.424 603.587 435.421 603.605 436.051 602.727L435.667 601.206C431.009 604.139 433.64 611.634 431.037 614.62C429.305 615.187 429.588 615.344 428.001 615.012C425.625 616.5 424.963 617.365 423.975 620.045C422.433 634.345 422.704 649.547 422.548 663.989C409.526 671.9 397.698 681.194 385.434 688.743C387.451 685.832 389.874 682.518 391.746 679.567L391.454 678.94C400.859 664.315 412.69 652.674 417.376 635.38C418.561 631.005 421.208 624.569 421.358 620.104L420.88 619.963C418.766 623.911 416.648 635.208 414.226 640.276C406.915 655.57 396.06 670.443 386.147 684.19L385.484 683.972C383.561 685.217 374.601 697.867 372.668 700.538C385.258 695.227 409.191 676.454 422.451 668.533C422.878 680.215 422.662 692.524 422.636 704.255C401.043 709.965 386.745 722.046 373.135 739.502C370.518 742.858 366.13 748.762 364.048 752.426C363.743 752.961 363.452 753.504 363.175 754.054L363.645 754.792C362.013 758.14 356.696 770.445 353.386 771.891C352.902 772.102 347.135 772.841 346.096 772.969C349.891 774.086 352.375 772.928 354.569 773.678L354.5 774.747L354.098 774.476C353.526 775.561 353.568 776.071 352.374 776.313C348.143 777.17 341.819 778.262 337.525 778.613C333.553 780.563 290.993 784.63 284.316 784.43C276.243 784.188 257.648 783.279 249.816 780.45C229.889 773.252 209.687 760.361 191.204 749.791C182.079 744.574 171.531 738.448 162.943 732.419C160.483 730.692 156.158 723.343 153.682 721.088C153.434 720.86 153.186 720.632 152.938 720.404C146.882 717.022 140.844 707.993 135.332 703.396C133.181 700.469 133.366 699.614 133.839 695.918C133.641 694.097 133.579 693.874 133.764 691.983C134.13 693.786 134.396 696.04 135.24 697.559L136.734 697.909L136.913 696.937C135.012 694.927 134.363 690.429 135.301 687.886C135.512 686.467 135.394 682.228 135.477 680.455C135.804 673.488 136.518 659.906 138.9 653.578L139.601 653.483C140.398 654.888 140.416 655.207 140.844 656.736C141.707 656.222 141.39 656.565 141.836 655.746C139.597 649.888 137.207 646.874 139.373 640.313C140.05 638.263 140.021 637.887 141.869 636.789C142.19 637.102 142.511 637.416 142.832 637.73C144.326 635.739 143.624 623.989 150.417 621.209C153.02 619.03 174.343 588.6 177.177 584.242C176.885 583.076 178.023 581.223 178.615 580.549C183.435 575.067 193.741 557.723 198.354 553.75L198.962 553.626C200.687 555.15 199.906 555.311 200.351 557.204C202.233 565.204 212.671 576.517 218.627 581.754C253.325 612.261 294.752 636.415 337.92 652.617C348.226 656.479 361.298 660.667 372.223 661.836C372.022 664.008 369.68 668.394 368.697 670.727C370.305 669.685 374.703 662.347 376.295 660.153C372.337 658.679 367.49 660.186 362.675 657.866C360.535 656.834 353.206 656.605 350.535 655.454C348.208 654.714 344.473 652.99 341.768 652.019C321.291 644.735 301.551 635.526 282.812 624.516L282.655 623.611C281.923 622.777 268.663 615.48 265.642 613.317C247.186 600.103 209.482 578.408 202.887 555.03C201.507 550.141 203.959 547.76 206.476 544.08C209.228 540.893 215.475 531.038 218.368 527.062L259.881 470.929C263.693 465.732 285.032 435.165 288.632 433.607C292.823 433.389 297.79 437.322 301.539 439.672C337.552 461.676 376.529 484.053 413.088 505.239C420.607 509.619 428.152 513.954 435.722 518.246C440.904 521.134 446.173 523.877 451.297 526.866C452.885 527.793 453.91 528.325 453.939 530.254L454.57 531.262C455.929 529.905 457.511 527.912 458.786 526.407Z"/><path fill="#FEFEFE" d="M458.786 526.407C479.954 491.393 500.683 451.233 530.9 422.968C541.241 413.295 564.794 400.882 577.772 393.121L631.324 360.713L747.979 289.74L824.894 243.198L856.902 223.604C863.095 219.838 873.748 212.037 880.961 212.006C889.374 211.969 896.015 226.719 898.374 233.675C907.416 260.331 910.512 288.778 913.467 316.642C914.009 321.768 915.214 333.94 914.1 338.563C913.027 341.793 904.37 346.126 905.184 352.463C905.486 354.811 904.384 359.812 905.779 361.769C906.563 357.293 905.113 350.369 908.682 346.281C908.995 345.927 909.316 345.58 909.645 345.24L909.923 345.266L908.919 346.969L909.635 347.499C910.792 349.109 910.815 349.106 911.503 350.948C913.028 350.224 913.391 349.704 914.743 349.925C916.2 356.424 914.921 365.314 915.853 370.479C915.915 372.057 916.074 372.476 915.453 373.921L915.049 374.146C915.67 376.329 916.082 404.11 914.501 408.026C914.404 408.267 913.144 409.479 912.798 409.798L912.844 410.464C911.237 410.882 912.069 410.82 910.253 410.342C908.683 408.877 908.781 408.923 907.98 406.889C907.269 408.028 907.891 409.702 908.354 410.799L907.615 410.963L907.132 412.627L908.186 414.065C909.125 415.585 910.011 416.671 910.235 418.42L909.38 418.015C908.673 416.69 908.117 415.63 907.282 414.365L906.58 414.787C907.46 417.636 908.413 419.07 907.254 421.502C905.366 422.36 906.275 422.312 904.476 421.982C895.894 426.362 886.263 432.506 877.837 437.396C873.219 440.076 863.29 445.836 859.415 448.969C848.711 443.617 840.193 442.761 828.611 446.606C809.639 452.905 792.81 469.243 782.528 486.028C778.682 492.306 775.541 499.832 771.999 506.341C768.741 507.411 760 513.036 756.676 515.014L730.584 530.406L597.514 610.26C582.753 619.117 567.865 627.795 553.398 637.113C551.758 638.169 549.772 639.548 547.986 640.324C546.14 638.882 547.131 624.318 547.109 621.255L547.044 581.254C547.069 573.363 546.489 567.799 545.939 560.126C545.65 556.096 546.053 549.096 545.956 544.493C546.212 537.251 543.22 525.138 544.883 518.424C544.045 497.476 541.913 475.847 540.429 454.886C539.881 447.16 538.739 439.164 538.331 431.463C547.681 421.72 578.215 405.329 590.948 397.613L676.208 345.914C729.926 312.733 783.938 280.029 838.238 247.808C844.186 244.214 878.29 222.167 881.897 222.627L882.231 222.182C881.422 221.294 881.416 220.884 880.546 220.885C878.43 220.888 874.916 222.69 873.05 223.827C856.443 233.941 839.722 243.902 823.084 253.968L749.837 298.35L645.687 361.779L579.441 401.914C559.286 414.128 539.611 424.109 524.69 442.785C521.706 446.519 508.13 461.949 508.096 465.316L508.665 465.878C511.19 464.603 517.859 455.069 520.201 452.073C525.346 445.487 530.055 439.461 536.204 433.627C537.509 446.307 538.427 459.024 538.957 471.76C528.032 479.418 518.366 485.164 507.309 492.36C499.374 497.611 491.541 503.012 483.812 508.562C475.66 514.298 467.324 519.944 460.117 526.901L458.786 526.407Z"/><path fill="#0D1725" d="M549.334 471.133C565.42 460.339 587.539 447.892 604.613 437.535L730.133 361.701L833.739 298.389L865.501 278.719C868.415 276.907 883.457 266.745 886.006 267.531C889.571 273.466 892.06 312.972 892.784 322.936C893.891 338.16 894.496 360.299 893.444 375.603C888.839 379.023 878.444 384.531 872.982 387.918C857.266 397.665 840.946 406.92 825.182 416.618C819.833 419.908 805.495 427.432 801.619 431.317C801.326 433.229 801.011 433.067 801.776 434.392C805.4 433.576 818.186 425.469 821.99 423.214L861.908 399.529C870.227 394.528 878.616 389.645 887.073 384.882C891.192 382.588 902.566 377.551 903.927 373.978L904.829 374.82L904.55 375.229C904.229 378.996 903.857 382.758 903.433 386.515C903.334 384.874 903.469 383.326 902.573 382.037C898.789 381.165 865.228 401.95 859.921 405.116L817.919 429.828L648.505 529.052C635.667 536.697 586.759 568.297 577.523 569.441C574.569 569.807 571.226 568.739 568.909 566.902C565.234 563.989 562.78 559.27 561.193 554.924C558.572 547.744 557.392 539.822 556.184 532.29C552.929 512.001 551.676 491.53 549.334 471.133Z"/><path fill="#FEFEFE" d="M883.255 272.439C883.37 272.518 883.485 272.597 883.599 272.676C889.921 292.144 890.496 356.37 890.457 373.168C881.831 378.809 872.786 383.399 863.843 389.075C842.926 402.352 820.537 414.16 799.901 427.748C797.588 429.271 797.504 433.949 797.5 436.442C784.255 444.513 770.785 451.963 757.443 459.885L658.98 518.497L605.981 550.399C598.848 554.623 591.728 558.858 584.526 562.962C576.803 567.363 572.196 566.407 566.815 559.089C556.736 541.681 555.822 494.374 552.438 473.386C558.916 469.908 567.866 463.975 574.445 460.008L629.494 426.554L787.503 331.017C818.837 311.866 851.71 290.605 883.255 272.439Z"/><path fill="#01050A" d="M909.635 347.499C910.792 349.109 910.815 349.106 911.503 350.948C913.028 350.224 913.391 349.704 914.743 349.925C916.2 356.424 914.921 365.314 915.853 370.479C915.915 372.057 916.074 372.476 915.453 373.921L915.049 374.146C915.67 376.329 916.082 404.11 914.501 408.026C914.404 408.267 913.144 409.479 912.798 409.798L912.844 410.464C911.237 410.882 912.069 410.82 910.253 410.342C908.683 408.877 908.781 408.923 907.98 406.889C907.269 408.028 907.891 409.702 908.354 410.799L907.615 410.963C907.14 410.384 907.264 410.608 906.908 409.721C905.626 406.524 907.399 359.46 908.267 352.659C908.501 350.823 908.974 349.225 909.635 347.499Z"/><path fill="#FEFEFE" d="M915.049 374.146C915.67 376.329 916.082 404.11 914.501 408.026C914.404 408.267 913.144 409.479 912.798 409.798L911.005 409.777C907.755 406.839 910.289 382.827 910.336 377.347C910.336 377.347 911.608 375.824 911.78 375.618L915.049 374.146Z"/><path fill="#FEFEFE" d="M911.503 350.948C913.028 350.224 913.391 349.704 914.743 349.925C916.2 356.424 914.921 365.314 915.853 370.479C915.915 372.057 916.074 372.476 915.453 373.921L915.049 374.146L911.78 375.618C910.624 375.303 910.698 375.346 909.833 374.517L909.947 373.125C910.617 365.657 910.394 358.464 911.503 350.948Z"/><path fill="#01050A" d="M915.853 370.479C915.915 372.057 916.074 372.476 915.453 373.921L915.049 374.146L911.78 375.618C910.624 375.303 910.698 375.346 909.833 374.517L909.947 373.125C911.39 372.721 914.376 371.186 915.853 370.479Z"/><path fill="#01050A" d="M914.1 338.563C913.027 341.793 904.37 346.126 905.184 352.463C905.486 354.811 904.384 359.812 905.779 361.769C906.563 357.293 905.113 350.369 908.682 346.281C908.995 345.927 909.316 345.58 909.645 345.24L909.923 345.266L908.919 346.969L909.635 347.499C908.974 349.225 908.501 350.823 908.267 352.659C907.399 359.46 905.626 406.524 906.908 409.721C907.264 410.608 907.14 410.384 907.615 410.963L907.132 412.627L908.186 414.065C909.125 415.585 910.011 416.671 910.235 418.42L909.38 418.015C908.673 416.69 908.117 415.63 907.282 414.365L906.58 414.787C907.46 417.636 908.413 419.07 907.254 421.502C905.366 422.36 906.275 422.312 904.476 421.982L907.54 419.571C900.671 408.512 903.049 399.901 903.433 386.515C903.857 382.758 904.229 378.996 904.55 375.229L904.829 374.82L903.927 373.978C903.295 371.516 903.367 368.13 903.567 365.581C904.402 354.975 902.91 344.179 914.1 338.563Z"/><path fill="#647685" d="M908.919 346.969L909.635 347.499C908.974 349.225 908.501 350.823 908.267 352.659C907.399 359.46 905.626 406.524 906.908 409.721C907.264 410.608 907.14 410.384 907.615 410.963L907.132 412.627C906.87 412.044 906.627 411.48 906.418 410.877C904.405 405.074 906.094 360.115 907.25 352.261C907.536 350.32 908.057 348.727 908.919 346.969Z"/><path fill="#01050A" d="M544.883 518.424C548.456 555.227 548.092 593.546 548.254 630.479C548.268 633.649 548.183 637.153 547.986 640.324C546.14 638.882 547.131 624.318 547.109 621.255L547.044 581.254C547.069 573.363 546.489 567.799 545.939 560.126C545.65 556.096 546.053 549.096 545.956 544.493C546.212 537.251 543.22 525.138 544.883 518.424Z"/><path fill="#FEFEFE" d="M198.684 554.344C201.289 571.658 229.581 592.959 243.136 602.864C274.564 625.828 332.74 657.651 371.739 662.735C355.005 689.876 335.602 705.367 314.52 728.177C299.943 731.591 286.254 733.87 271.448 736.171C292.105 711.817 316.581 691.857 340.952 671.346C342.021 670.446 344.28 667.339 344.338 665.986C341.76 665.481 336.306 671.357 334.266 673.115C308.677 695.183 281.085 716.257 261.788 744.404C255.788 753.156 252.648 763.338 247.749 772.54C226.848 763.35 207.074 751.13 187.273 739.768C179.979 735.193 172.121 731.643 165.299 726.343C157.34 719.632 158.822 707.844 157.362 699.083C153.342 674.969 156.798 660.346 165.481 638.514C169.523 628.35 198.279 588.772 198.467 584.064L197.958 583.137C196.397 583.552 195.886 584.219 194.977 585.741C176.083 617.393 155.786 636.163 153.241 675.146C149.182 664.297 146.477 651.677 144.571 640.251C143.083 631.333 145.864 628.135 150.417 621.209C153.02 619.03 174.343 588.6 177.177 584.242C184.555 574.442 191.206 564.079 198.684 554.344Z"/><path fill="#01050A" d="M161.91 683.271C165.917 684.441 190.207 699.831 196.027 702.98C209.054 710.026 222.881 717.44 236.23 724.421C240.963 726.897 251.058 731.673 255.162 735.185C256.04 735.937 255.677 738.281 255.517 739.521C247.548 740.499 194.672 710.078 185.149 704.813C180.706 702.356 167.342 693.189 162.624 691.608C161.971 688.507 161.278 686.371 161.91 683.271Z"/><path fill="#596670" d="M164.516 688.959C168.363 689.254 185.978 701.372 191.181 704.352C210.561 715.449 232.619 724.88 251.645 736.059C245.794 735.366 198.735 709.221 189.803 704.587C186.496 702.872 168.872 691.65 164.516 688.959Z"/><path fill="#01050A" d="M166.637 702.148C175.251 702.631 234.647 741.628 247.814 746.431C249.665 747.106 250.788 748.525 249.902 750.629C249.45 750.782 247.73 751.316 247.479 751.241C233.729 747.128 173.43 713.539 166.844 706.924C166.025 705.032 166.341 704.296 166.637 702.148Z"/><path fill="#596670" d="M168.862 705.395C171.58 706.028 176.062 709.247 178.747 710.943C190.319 718.228 202.133 725.121 214.169 731.611C222.299 735.99 230.37 739.913 238.453 744.52C232.265 744.294 176.298 711.46 168.862 705.395Z"/><path fill="#1E2C3A" d="M239.543 745.387C241.978 746.063 244.089 747.156 246.243 748.438L246.25 749.341L245.605 749.141L244.711 748.849C241.884 747.94 241.743 747.54 239.543 745.387Z"/><path fill="#01050A" d="M170.956 716.869C174.688 718.154 184.633 724.462 188.42 726.772C194.718 730.64 201.121 734.336 207.621 737.854C217.758 743.355 228.047 748.698 238.218 754.147C241.234 755.763 244.67 756.924 244.894 760.595C243.625 761.047 242.093 761.608 240.729 761.582C234.274 761.457 176.975 728.488 172.439 723.893C170.607 722.036 170.926 719.259 170.956 716.869Z"/><path fill="#596670" d="M174.621 721.939C177.259 722.563 192.122 732.157 196.12 734.442C204.281 739.105 212.639 744.334 221.066 748.865C226.918 752.012 235.326 755.525 240.588 759.083C233.716 758.096 180.004 726.967 174.621 721.939Z"/><path fill="#FEFEFE" d="M329.677 725.181C341.31 711.896 354.915 700.042 366.019 686.23C374.202 676.05 381.312 664.918 388.603 654.09C390.559 651.184 391.666 646.579 393.626 643.33L441.382 563.322C450.024 548.596 458.068 530.772 471.7 520.441C493.423 503.979 516.473 489.657 539.318 474.854C540.978 502.296 543.313 529.487 544.291 557C545.314 585.75 544.363 613.968 544.877 642.693C534.366 648.763 524.092 656.21 513.545 662.376C509.345 664.831 504.273 667.883 500.407 670.687C496.045 672.697 486.894 679.062 482.313 681.825C468.904 689.912 454.525 700.019 440.934 707.57C434.915 705.059 432.567 704.719 426.005 703.929C426.05 691.278 426.262 678.212 425.904 665.599C430.15 663.07 433.57 661.177 437.373 657.958C442.462 661.351 447.382 664.965 453.226 666.804C458.376 664.78 468.109 660.072 468.403 653.707C468.75 646.16 468.471 638.241 468.493 630.631C478.415 623.917 490.388 616.166 499.13 608.233L498.852 607.708C499.345 606.744 506.943 600.397 508.55 598.777C515.544 591.727 522.492 583.956 526.506 574.726C527.846 571.647 532.009 561.554 531.388 558.781L530.864 558.797L529.322 560.585C527.566 575.671 513.182 592.85 502.14 602.602L501.815 601.67C492.429 608.694 483.114 615.79 473.602 622.663C471.617 624.097 470.033 625.528 467.607 624.51L467.307 623.511C468.378 619.934 477.823 614.393 481.183 612.044C493.418 603.489 509.058 593.132 517.288 580.57L516.887 579.897L517.269 579.323C530.757 558.823 527.327 535.709 528.801 512.484C529.048 508.585 529.269 502.929 527.295 499.531L527.21 499.739L526.701 499.388C525.994 502.27 526.843 511.276 526.598 515.528C525.624 533.369 528.73 555.24 520.155 571.341C517.798 575.766 513.753 582.792 510.292 586.292C506.15 590.481 478.557 612.481 474.754 612.519C472.063 609.363 476.625 594.53 473.234 591.834L472.551 591.955C472.296 598.012 472.84 610.673 472.427 615.216C471.15 616.181 468.263 617.845 467.309 617.177C461.376 613.026 455.473 607.295 448.926 603.848C441.904 600.151 438.014 609.254 434.905 604.574C435.424 603.587 435.421 603.605 436.051 602.727L435.667 601.206C431.009 604.139 433.64 611.634 431.037 614.62C429.305 615.187 429.588 615.344 428.001 615.012C425.625 616.5 424.963 617.365 423.975 620.045C422.433 634.345 422.704 649.547 422.548 663.989C409.526 671.9 397.698 681.194 385.434 688.743C387.451 685.832 389.874 682.518 391.746 679.567L391.454 678.94C400.859 664.315 412.69 652.674 417.376 635.38C418.561 631.005 421.208 624.569 421.358 620.104L420.88 619.963C418.766 623.911 416.648 635.208 414.226 640.276C406.915 655.57 396.06 670.443 386.147 684.19L385.484 683.972C383.561 685.217 374.601 697.867 372.668 700.538C385.258 695.227 409.191 676.454 422.451 668.533C422.878 680.215 422.662 692.524 422.636 704.255C401.043 709.965 386.745 722.046 373.135 739.502C370.518 742.858 366.13 748.762 364.048 752.426C363.743 752.961 363.452 753.504 363.175 754.054C360.637 757.177 356.53 766.435 354.984 770.309C343.888 772.518 332.425 773.844 321.177 775.096C326.618 765.718 331.957 756.281 337.192 746.787C339.646 742.319 343.072 736.717 344.788 731.961C349.572 718.699 336.684 723.035 329.677 725.181Z"/><path fill="#01050A" d="M431.51 613.218C431.385 603.255 433.985 600.498 438.953 591.602C452.162 567.949 466.647 538.273 487.477 520.656C499.084 512.419 512.666 502.336 524.915 495.641C532.31 491.6 529.11 532.454 528.977 536.017L528.3 546.789C527.215 558.293 525.031 571.288 517.288 580.57L516.887 579.897L517.269 579.323C530.757 558.823 527.327 535.709 528.801 512.484C529.048 508.585 529.269 502.929 527.295 499.531L527.21 499.739L526.701 499.388C525.994 502.27 526.843 511.276 526.598 515.528C525.624 533.369 528.73 555.24 520.155 571.341C517.798 575.766 513.753 582.792 510.292 586.292C506.15 590.481 478.557 612.481 474.754 612.519C472.063 609.363 476.625 594.53 473.234 591.834L472.551 591.955C472.296 598.012 472.84 610.673 472.427 615.216C471.15 616.181 468.263 617.845 467.309 617.177C461.376 613.026 455.473 607.295 448.926 603.848C441.904 600.151 438.014 609.254 434.905 604.574C435.424 603.587 435.421 603.605 436.051 602.727L435.667 601.206C431.009 604.139 433.64 611.634 431.037 614.62C429.305 615.187 429.588 615.344 428.001 615.012C429.138 614.227 430.249 613.802 431.51 613.218Z"/><path fill="#FEFEFE" d="M523.646 499.888C524.43 500.045 524.453 499.866 524.833 500.442C527.615 504.65 525.126 550.961 523.917 557.612C519.262 583.225 496.114 597.357 476.332 611.059L475.701 611.421C474.667 610.691 475.353 602 475.366 600.201C475.488 584.171 475.377 568.134 475.433 552.103C475.447 548.013 475.75 543.126 475 539.159C490.578 520.057 503.652 513.895 523.646 499.888Z"/><path fill="#FEFEFE" d="M470.925 544.924C471.862 545.932 471.441 607.092 471.761 614.508L467.793 617.136C462.785 611.336 455.323 606.922 448.849 602.804L445.159 601.327L436.337 604.977C446.698 584.309 458.247 564.258 470.925 544.924Z"/><path fill="#01050A" d="M385.484 683.972C386.547 681.551 390.915 675.594 392.578 673.159C398.699 664.197 404.541 656.262 409.833 646.743C416.152 635.375 417.758 623.541 422.587 612.053C425.791 604.43 432.123 593.198 436.496 585.75C448.637 565.071 461.5 539.969 478.589 523.095C488.617 513.614 500.586 506.754 512.064 499.14C516.11 496.456 523.11 489.875 528.163 489.942C530.91 489.978 533.209 495.522 533.383 498.037C534.746 517.665 533.563 537.796 532.425 557.428C530.969 578.123 514.445 595.966 499.13 608.233L498.852 607.708C499.345 606.744 506.943 600.397 508.55 598.777C515.544 591.727 522.492 583.956 526.506 574.726C527.846 571.647 532.009 561.554 531.388 558.781L530.864 558.797L529.322 560.585C527.566 575.671 513.182 592.85 502.14 602.602L501.815 601.67C492.429 608.694 483.114 615.79 473.602 622.663C471.617 624.097 470.033 625.528 467.607 624.51L467.307 623.511C468.378 619.934 477.823 614.393 481.183 612.044C493.418 603.489 509.058 593.132 517.288 580.57C525.031 571.288 527.215 558.293 528.3 546.789L528.977 536.017C529.11 532.454 532.31 491.6 524.915 495.641C512.666 502.336 499.084 512.419 487.477 520.656C466.647 538.273 452.162 567.949 438.953 591.602C433.985 600.498 431.385 603.255 431.51 613.218C430.249 613.802 429.138 614.227 428.001 615.012C425.625 616.5 424.963 617.365 423.975 620.045C422.433 634.345 422.704 649.547 422.548 663.989C409.526 671.9 397.698 681.194 385.434 688.743C387.451 685.832 389.874 682.518 391.746 679.567L391.454 678.94C400.859 664.315 412.69 652.674 417.376 635.38C418.561 631.005 421.208 624.569 421.358 620.104L420.88 619.963C418.766 623.911 416.648 635.208 414.226 640.276C406.915 655.57 396.06 670.443 386.147 684.19L385.484 683.972Z"/><path fill="#647685" d="M422.81 620.034L423.975 620.045C422.433 634.345 422.704 649.547 422.548 663.989C409.526 671.9 397.698 681.194 385.434 688.743C387.451 685.832 389.874 682.518 391.746 679.567C401.752 667.971 412.055 651.692 417.766 637.535C419.865 632.33 420.316 624.873 422.81 620.034Z"/><defs><linearGradient id="gradient_1" gradientUnits="userSpaceOnUse" x1="506.86047" y1="595.2995" x2="492.99106" y2="579.82428"><stop offset="0" stop-color="#738E98"/><stop offset="1" stop-color="#7DC5D7"/></linearGradient></defs><path fill="url(#gradient_1)" d="M528.3 546.789L529.458 548.459C529.474 570.518 520.413 583.125 505.148 598.426C504.057 599.528 502.946 600.609 501.815 601.67C492.429 608.694 483.114 615.79 473.602 622.663C471.617 624.097 470.033 625.528 467.607 624.51L467.307 623.511C468.378 619.934 477.823 614.393 481.183 612.044C493.418 603.489 509.058 593.132 517.288 580.57C525.031 571.288 527.215 558.293 528.3 546.789Z"/><path fill="#D7EBEF" d="M422.81 620.034C424.227 615.79 427.663 607.796 430.01 603.82C445.851 576.951 460.944 544.351 483.405 522.409C487.394 518.511 521.875 494.967 526.248 493.656C533.188 494.74 530.406 526.51 530.194 533.392L528.977 536.017C529.11 532.454 532.31 491.6 524.915 495.641C512.666 502.336 499.084 512.419 487.477 520.656C466.647 538.273 452.162 567.949 438.953 591.602C433.985 600.498 431.385 603.255 431.51 613.218C430.249 613.802 429.138 614.227 428.001 615.012C425.625 616.5 424.963 617.365 423.975 620.045L422.81 620.034Z"/><path fill="#92F5FB" d="M528.977 536.017L530.194 533.392C530.011 538.328 529.91 543.564 529.458 548.459L528.3 546.789L528.977 536.017Z"/><path fill="#01050A" d="M531.594 602.5C543.13 603.765 540.508 612.097 533.39 616.347C527.778 619.698 520.169 625.035 514.445 627.644C513.797 627.535 513.151 627.408 512.51 627.265C493.098 622.785 527.168 604.709 531.594 602.5Z"/><path fill="#647685" d="M512.395 623.26L513.111 622.793C516.609 620.488 532.771 608.916 535.989 609.196L536.558 610.171C536.097 611.553 535.301 612.682 533.842 613.089C528.464 614.592 516.891 625.701 511.774 623.726L512.395 623.26Z"/><path fill="#647685" d="M511.774 623.726C510.202 622.664 510.098 622.315 510.29 620.625C513.583 615.561 529.481 606.996 536.174 605.434C531.302 608.152 515.68 616.572 511.808 621.243C511.463 621.659 512.072 622.541 512.395 623.26L511.774 623.726Z"/><path fill="#768E9A" d="M206.476 544.08L208.123 545.247C206.956 547.947 207.475 549.446 208.55 552.119C221.227 583.635 304.421 629.452 335.204 642.277C350.844 648.793 366.166 653.535 382.927 656.159C376.519 665.511 369.987 675.526 363.173 684.506C355.347 694.818 344.978 704.45 336.038 713.947C332.187 718.038 327.696 722.705 323.448 726.337C322.589 727.072 319.703 727.757 318.537 728.057C333.497 714.266 348.962 697.36 362.467 682.025C368.329 675.368 372.321 666.151 378.284 659.242C343.017 656.878 313.21 639.11 282.655 623.611C281.923 622.777 268.663 615.48 265.642 613.317C247.186 600.103 209.482 578.408 202.887 555.03C201.507 550.141 203.959 547.76 206.476 544.08Z"/><path fill="#FEFEFE" d="M138.9 653.578L139.601 653.483C140.398 654.888 140.416 655.207 140.844 656.736C141.707 656.222 141.39 656.565 141.836 655.746L142.758 655.348L144.428 660.459L145.706 660.811L150.8 678.839L149.731 679.906C151.38 692.006 152.454 707.215 152.987 719.598L152.938 720.404C146.882 717.022 140.844 707.993 135.332 703.396C133.181 700.469 133.366 699.614 133.839 695.918C133.641 694.097 133.579 693.874 133.764 691.983C134.13 693.786 134.396 696.04 135.24 697.559L136.734 697.909L136.913 696.937C135.012 694.927 134.363 690.429 135.301 687.886C135.512 686.467 135.394 682.228 135.477 680.455C135.804 673.488 136.518 659.906 138.9 653.578Z"/><path fill="#01050A" d="M138.9 653.578L139.601 653.483C140.398 654.888 140.416 655.207 140.844 656.736C141.707 656.222 141.39 656.565 141.836 655.746L142.758 655.348L144.428 660.459L145.706 660.811L150.8 678.839L149.731 679.906C151.38 692.006 152.454 707.215 152.987 719.598L152.938 720.404C146.882 717.022 140.844 707.993 135.332 703.396C133.181 700.469 133.366 699.614 133.839 695.918C133.641 694.097 133.579 693.874 133.764 691.983C134.13 693.786 134.396 696.04 135.24 697.559L136.734 697.909L136.913 696.937C135.012 694.927 134.363 690.429 135.301 687.886C137.209 699.255 141.751 704.195 149.745 712.582C149.183 700.427 147.552 683.574 145.062 671.783C144.081 667.135 140.406 659.387 139.017 654.046L138.9 653.578Z"/><path fill="#768E9A" d="M133.839 695.918C136.979 706.537 149.313 713.513 152.987 719.598L152.938 720.404C146.882 717.022 140.844 707.993 135.332 703.396C133.181 700.469 133.366 699.614 133.839 695.918Z"/><path fill="#768E9A" d="M144.428 660.459L145.706 660.811L150.8 678.839L149.731 679.906C148.463 673.21 146.431 666.956 144.428 660.459Z"/><path fill="#768E9A" d="M150.8 678.839C152.701 685.051 154.741 697.408 154.816 703.813C154.781 726.441 161.315 728.07 178.393 738.244C195.87 748.657 214.88 758.486 232.052 768.616C259.354 784.72 282.736 782.938 313.043 779.205C317.51 778.655 331.137 776.4 335.429 776.653C337.052 777.016 336.849 777.124 338.442 776.969L338.857 777.396L339.579 777.132C339.368 777.406 337.974 777.945 337.403 778.34L337.525 778.613C333.553 780.563 290.993 784.63 284.316 784.43C276.243 784.188 257.648 783.279 249.816 780.45C229.889 773.252 209.687 760.361 191.204 749.791C182.079 744.574 171.531 738.448 162.943 732.419C160.483 730.692 156.158 723.343 153.682 721.088C153.434 720.86 153.186 720.632 152.938 720.404L152.987 719.598C152.454 707.215 151.38 692.006 149.731 679.906L150.8 678.839Z"/><path fill="#D7EBEF" d="M301.539 439.672C337.552 461.676 376.529 484.053 413.088 505.239C420.607 509.619 428.152 513.954 435.722 518.246C440.904 521.134 446.173 523.877 451.297 526.866C452.885 527.793 453.91 528.325 453.939 530.254C431.832 518.989 406.205 503.169 384.739 490.476L301.17 441.666L301.539 439.672Z"/><path fill="#D7EBEF" d="M458.786 526.407L460.117 526.901L459.637 527.422C453.2 534.503 444.772 550.141 439.48 558.722C424.403 583.166 410.922 608.863 395.695 633.28C393.682 636.508 385.765 649.746 383.904 651.476L383.191 651.462C384.757 645.288 448.043 540.284 454.57 531.262C455.929 529.905 457.511 527.912 458.786 526.407Z"/><path fill="#6BC8D3" d="M206.476 544.08C209.228 540.893 215.475 531.038 218.368 527.062L259.881 470.929C263.693 465.732 285.032 435.165 288.632 433.607C292.823 433.389 297.79 437.322 301.539 439.672L301.17 441.666C297.792 439.783 291.336 435.417 287.862 435.787C284.495 438.365 275.907 451.26 272.652 455.703C257.879 475.662 243.249 495.725 228.763 515.893C224.458 521.937 220.22 528.028 216.05 534.166C214.268 536.772 210.122 543.115 208.123 545.247L206.476 544.08Z"/><path fill="#D7EBEF" d="M139.31 647.745C139.753 644.62 140.026 642.24 140.925 639.205C142.002 644.336 144.189 656.572 145.706 660.811L144.428 660.459L142.758 655.348C141.651 652.684 140.698 650.294 139.31 647.745Z"/><path fill="#A2C1CA" d="M335.429 776.653C338.254 776.121 351.701 773.742 354.098 774.476C353.526 775.561 353.568 776.071 352.374 776.313C348.143 777.17 341.819 778.262 337.525 778.613L337.403 778.34C337.974 777.945 339.368 777.406 339.579 777.132L338.857 777.396L338.442 776.969C336.849 777.124 337.052 777.016 335.429 776.653Z"/><path fill="#FEFEFE" d="M289.475 439.735C292.302 440.553 306.201 448.896 309.28 450.717L347.159 473.13C368.979 485.914 390.88 498.672 412.798 511.284C424.775 518.175 437.276 524.82 448.876 532.309C435.364 550.996 424.961 572.731 413.032 592.263C401.524 611.106 389.766 634.341 377.07 652.041L372.886 651.139C362.47 648.713 352.289 645.369 342.463 641.147C304.57 625.153 247.013 592.91 218.816 561.405C215.731 557.959 213.155 552.685 211.415 548.388C214.799 542.156 219.427 536.189 223.501 530.353L246.072 498.644C259.444 480.179 275.262 456.901 289.475 439.735Z"/><path fill="#FEFEFE" d="M331.776 732.617C332.347 732.598 332.006 732.555 332.75 732.953C332.392 736.609 316.227 760.274 311.919 763.624C309.941 765.162 307.397 767.39 304.753 768.086C290.74 771.775 273.388 771.083 259.376 770.48C258.695 770.494 258.382 770.377 257.704 770.244C257.25 767.704 268.977 746.754 273.178 745.105C283.109 741.209 294.539 740.674 304.999 738.483C313.939 736.611 322.855 734.484 331.776 732.617Z"/><path fill="#768E9A" d="M338.148 731.213C338.811 731.805 340.03 732.968 340.685 733.457C333.273 746.531 325 763.067 316.734 775.438C314.263 775.84 310.603 776.583 308.201 776.525C308.791 774.512 309.547 772.641 308.949 770.695C320.141 762.359 331.348 743.177 338.148 731.213Z"/><path fill="#FEFEFE" d="M308.201 776.525C299.505 777.608 260.899 780.267 255.653 775.458L256.038 773.99C256.969 773.115 257.469 772.507 258.954 772.71C272.889 774.611 295.569 774.846 308.949 770.695C309.547 772.641 308.791 774.512 308.201 776.525Z"/><path fill="#768E9A" d="M269.372 739.784C273.494 738.656 277.931 737.98 282.169 737.352C298.602 734.916 314.741 731.471 331 728.082L331.005 729.548C323.152 731.688 315.211 733.493 307.205 734.96C296.421 736.999 280.013 738.342 270.508 743.197C268.314 744.317 264.258 750.495 262.702 752.815L261.78 750.647C263.254 747.153 266.811 742.567 269.372 739.784Z"/><path fill="#A2C1CA" d="M331 728.082C334.451 727.064 338.108 725.447 341.39 726.634C343.256 728.973 341.944 730.969 340.685 733.457C340.03 732.968 338.811 731.805 338.148 731.213C337.429 730.026 337.294 730.052 336.163 729.194C334 728.657 333.265 729.029 331.005 729.548L331 728.082Z"/><path fill="#A2C1CA" d="M261.78 750.647L262.702 752.815C259.082 759.023 254.472 767.967 251.807 774.522C251.566 770.071 259.303 755.323 261.78 750.647Z"/><path fill="#FEFEFE" d="M719.311 122.017C727.582 121.56 738.594 129.501 745.742 133.745C754.315 138.834 762.917 143.873 771.548 148.863L875.324 208.306C863.04 213.445 839.987 228.677 828.075 236.037L759.756 277.35L592.837 378.752C572.553 391.206 544.937 405.177 527.27 420.452C505.404 439.356 488.762 468.456 473.667 492.783C467.304 503.039 461.06 513.716 455.063 524.288C453.346 523.534 451.638 522.761 449.938 521.969C419.952 503.453 386.851 485.454 356.342 467.354L320.029 446.031C313.22 441.957 299.26 433.045 292.356 430.463C297.313 423.117 303.661 415.304 309.191 408.275C317.385 397.688 325.711 387.204 334.167 376.826C344.183 364.406 354.461 350.107 366.338 339.482C371.578 334.796 379.48 330.475 385.563 326.619C398.889 318.258 412.272 309.987 425.71 301.808L569.404 213.893C609.769 188.526 650.343 163.494 691.123 138.801C697.504 134.982 713.635 123.842 719.311 122.017Z"/><path fill="#0D1725" d="M720.103 148.496C723.702 148.557 726.24 149.68 729.311 151.472C759.171 168.898 789.187 186.043 819.134 203.315C822.859 205.463 826.365 208.701 821.035 211.939C810.262 218.484 799.403 224.912 788.601 231.423C763.526 246.645 738.361 261.72 713.108 276.645L523.578 390.968C522.446 391.59 520.562 392.816 519.493 392.305C515.187 390.244 510.252 387.188 506.179 384.79L472.907 365.126L440.914 346.598C436.662 344.151 422.08 336.582 420.04 332.926C420.946 330.54 553.945 250.663 566.452 242.973C601.414 221.26 636.503 199.752 671.716 178.45C687.829 168.558 703.813 158.121 720.103 148.496Z"/><path fill="#FEFEFE" d="M721.867 152.885C723.949 153.217 750.635 169.064 755.154 171.628C770.521 180.345 785.831 189.162 801.082 198.08C806.636 201.261 813.012 204.453 818.276 207.57C808.035 215.306 785.391 228.267 774.01 235.034L708.065 274.636L593.202 343.961C569.702 358.396 546.056 372.594 522.268 386.551C520.034 387.959 519.361 387.406 517.158 386.116C501.966 377.224 486.84 368.223 471.603 359.401L442.804 342.659C437.822 339.743 431.172 336.106 426.574 332.797C437.849 325.531 451.762 317.633 463.449 310.602L536.049 266.685L721.867 152.885Z"/><path fill="#0D1725" d="M527.063 294.549C538.159 301.073 549.296 307.53 560.472 313.918C565.782 316.934 582.842 325.571 585.728 330.338L585.522 331.158C581.003 334.686 571.364 340.144 566.083 343.286C555.799 349.405 545.265 355.945 534.878 361.811C529.563 359.49 519.542 353.371 514.096 350.189C501.633 342.886 489.209 335.517 476.824 328.083C476.524 327.551 476.002 327.073 476.244 326.45C477.474 323.267 520.176 298.483 527.063 294.549Z"/><path fill="#FEFEFE" d="M526.482 298.94C529.347 299.35 576.316 327.262 581.523 330.349C568.437 336.995 548.886 349.738 535.522 357.622C532.875 357.497 486.881 330.338 480.751 326.529C485.332 323.366 491.757 319.769 496.701 316.798L526.482 298.94Z"/><path fill="#31F6FB" d="M236.363 488.269C259.468 455.948 287.595 420.687 312.357 389.718L338.692 356.496C343.229 350.847 352.099 339.036 357.437 334.86C375.568 320.672 398.794 307.711 418.313 295.622L558.642 209.646C597.787 185.098 637.118 160.845 676.63 136.891C688.494 129.855 700.181 121.103 712.541 115.095C717.155 112.852 721.278 112.827 726.229 113.871C738.372 116.431 769.657 136.775 782.245 144.103L853.034 185.207C859.981 189.268 866.986 193.23 874.047 197.091C879.558 200.088 885.315 202.873 890.542 206.339C894.696 209.093 897.641 211.823 900.364 216.016C923.379 251.456 927.361 376.543 924.2 421.34C923.287 434.288 920.875 446.7 918.179 459.369L958.123 481.463C965.503 485.57 973.591 489.95 980.612 494.634C982.356 495.797 982.554 495.977 982.739 497.463C981.517 499.8 950.398 517.807 945.457 520.779L863.934 569.717C736.23 646.889 606.518 722.412 479.601 800.683L436.501 827.793C387.581 858.435 338.081 888.14 288.028 916.893C276.971 923.197 265.93 930.787 254.783 936.923C252.927 937.945 250.915 936.187 250.654 933.993C252.273 931.07 307.159 899.327 314.379 895.072C297.899 884.224 278.035 873.711 260.853 863.677L58.7869 745.714C52.4434 741.938 48.9722 740.546 57.0171 735.632C71.9351 726.521 86.8999 717.359 101.993 708.556C103.064 707.931 103.744 708.298 104.667 708.709C105.843 711.274 105.33 713.102 102.809 714.531C88.4326 722.678 74.7328 731.886 60.5303 740.317C73.2209 747.986 87.9022 755.631 100.996 763.305L245.713 848.554L299.381 879.606C306.392 883.643 313.502 887.377 320.418 891.562C334.068 884.065 348.068 875.083 361.594 867.145C379.482 856.648 396.962 845.36 414.885 834.863C421.679 830.884 428.826 825.305 435.765 821.118C490.193 788.273 544.572 755.013 599.089 722.337L827.531 585.552L909.478 536.444C930.184 524.172 955.218 509.89 975.262 496.993C955.843 485.702 936.428 475.256 916.775 464.413C909.796 478.098 900.021 482.777 887.138 490.065C881.02 493.525 875.011 497.01 868.703 500.175C868.729 500.885 868.748 501.595 868.762 502.305C869.022 524.784 860.462 546.47 844.917 562.711C836.265 571.613 824.132 579.261 811.285 579.364C802.485 579.435 797.34 575.6 791.453 569.842C786.258 562.635 784.392 558.282 783.26 549.5C782.127 540.147 783.415 531.481 785.328 522.378L786.863 516.846C789.905 506.874 795.879 495.708 802.876 487.958C814.492 473.591 838.682 458.983 856.004 472.993C862.861 478.54 865.293 487.247 867.967 495.292C878.036 491.303 897.926 480.068 905.646 472.695C908.521 469.949 910.759 466.874 912.319 463.203C926.473 429.886 919.727 323.837 914.682 286.218C912.114 267.07 908.967 246.162 901.617 228.195C898.991 221.775 895.949 215.672 890.316 211.361C886.611 208.526 881.831 206.684 877.739 204.419C868.444 199.187 859.178 193.903 849.942 188.566L766.501 140.062L745.986 128.255C738.363 123.8 723.881 113.996 715.947 118.173C705.076 123.895 692.301 132.617 681.711 138.97C640.575 163.96 599.6 189.214 558.788 214.731L422.549 297.973L387.226 319.901C378.859 325.123 368.524 330.939 361.392 337.472C353.589 344.62 346.103 354.365 339.442 362.693L314.679 393.839C297.699 415.324 280.261 437.066 263.942 459.032C253.897 472.552 243.154 485.79 233.448 499.47C230.628 492.075 232.961 474.945 218.302 478.966C216.544 479.448 212.764 481.786 211.951 483.85C210.675 493.998 212.583 516.341 213.734 525.844C205.083 538.933 196.895 549.516 187.596 562.017C178.118 574.76 168.75 588.548 159.469 601.521C153.248 610.215 141.623 625.015 138.113 634.25C134.16 644.651 132.466 664.413 131.226 675.81C130.416 683.254 128.892 703.009 130.755 709.996C134.296 723.28 142.638 743.59 149.603 755.679C151.916 758.937 156.157 762.089 159.361 764.206C174.757 774.376 192.191 783.679 207.821 793.066C230.404 806.628 250.458 817.651 277.137 820.314C278.595 820.46 288.905 821.621 289.882 821.96C292.087 822.84 292.04 822.443 293.349 824.037C292.859 825.861 292.241 825.664 290.296 826.072C280.906 826.208 254.912 821.734 245.972 818.105C226.117 810.043 206.425 797.531 187.539 786.776C174.869 779.561 156.203 769.286 146.368 758.206C139.751 749.023 131.114 726.007 127.424 715.054C123.447 703.25 125.683 684.457 127.241 672.24C128.852 659.602 129.709 645.703 133.556 633.542C136.23 625.641 145.606 613.237 150.658 606.018C162.154 589.541 173.94 573.268 186.008 557.205C193.251 547.37 202.552 535.436 208.679 525.101C208.618 515.127 205.427 488.762 208.988 481.116C210.426 478.029 212.962 475.499 216.191 474.34C219.835 473.034 224.976 473.347 228.374 475.231C233.095 477.849 234.834 483.463 236.363 488.269Z"/><path fill="#0D1725" d="M800.938 495.125C810.152 483.955 822.031 472.951 836.989 471.015C841.966 470.273 849.966 472.129 853.624 475.817C875.303 497.672 862.51 536.643 844.527 557.264C833.652 569.734 813.315 582.856 796.879 570.058C790.976 565.463 787.899 556.402 786.183 549.098C784.357 529.365 789.972 511.498 800.938 495.125Z"/><defs><linearGradient id="gradient_2" gradientUnits="userSpaceOnUse" x1="861.37378" y1="492.18188" x2="790.22455" y2="552.61127"><stop offset="0" stop-color="#66727E"/><stop offset="1" stop-color="#8DA0A8"/></linearGradient></defs><path fill="url(#gradient_2)" d="M837.233 476.161C880.141 471.315 858.879 566.186 813.537 569.273C770.268 568.877 793.115 482.063 837.233 476.161Z"/><path fill="#01050A" d="M833.926 483.641C846.321 482.63 852.763 489.261 854.945 500.93C858.434 519.588 849.571 539.435 836.573 552.556C830.682 558.504 824.464 561.417 816.382 563.001C776.132 564.176 793.892 491.213 833.926 483.641Z"/><path fill="#FEFEFE" d="M836.538 486.686C868.466 488.76 850.939 556.827 812.994 560.303C802.965 559.745 797.503 550.858 796.749 541.565C794.938 519.265 812.608 488.876 836.538 486.686Z"/><defs><linearGradient id="gradient_3" gradientUnits="userSpaceOnUse" x1="840.02222" y1="503.54761" x2="809.5943" y2="543.30682"><stop offset="0" stop-color="#000002"/><stop offset="1" stop-color="#13202E"/></linearGradient></defs><path fill="url(#gradient_3)" d="M825.36 500.316C833.132 498.197 840.413 498.947 843.623 508.284C848.991 523.898 827.956 555.115 810.476 545.046C802.405 540.397 804.709 525.447 808.681 517.577C812.123 509.547 817.616 504.141 825.36 500.316Z"/><path fill="#FEFEFE" d="M808.681 517.577C812.123 509.547 817.616 504.141 825.36 500.316L824.989 501.723C828.506 503.671 832.976 501.473 836.746 505.967L836.533 506.689C834.741 505.396 833.947 504.614 831.729 505.111C839.38 509.137 835.95 517.905 833.167 524.053C827.984 535.503 807.468 544.916 812.17 523.506C811.818 523.089 811.537 521.857 811.354 521.247L810.121 520.96L810.094 520.592C809.296 519.322 809.205 518.953 808.681 517.577Z"/><path fill="#0D1725" d="M808.681 517.577C812.123 509.547 817.616 504.141 825.36 500.316L824.989 501.723C828.506 503.671 832.976 501.473 836.746 505.967L836.533 506.689C834.741 505.396 833.947 504.614 831.729 505.111C827.849 505.361 826.68 505.228 823.22 507.066C820.335 509.183 816.575 512.091 815.145 515.426L815.189 515.962L815.692 517.414C814.449 519.474 813.312 521.377 812.17 523.506C811.818 523.089 811.537 521.857 811.354 521.247L810.121 520.96L810.094 520.592C809.296 519.322 809.205 518.953 808.681 517.577Z"/><path fill="#1E2C3A" d="M810.094 520.592C811.718 516.784 811.352 516.464 815.145 515.426L815.189 515.962L815.692 517.414C814.449 519.474 813.312 521.377 812.17 523.506C811.818 523.089 811.537 521.857 811.354 521.247L810.121 520.96L810.094 520.592Z"/><path fill="#01050A" d="M823.22 507.066L823.959 507.941C827.029 506.977 827.665 506.844 830.525 508.391L830.518 508.869C822.744 509.585 821.302 512.161 815.692 517.414L815.189 515.962L815.145 515.426C816.575 512.091 820.335 509.183 823.22 507.066Z"/><path fill="#C6CCD3" d="M823.22 507.066L823.959 507.941C820.395 510.741 818.409 512.715 815.189 515.962L815.145 515.426C816.575 512.091 820.335 509.183 823.22 507.066Z"/><defs><linearGradient id="gradient_4" gradientUnits="userSpaceOnUse" x1="819.92902" y1="517.41235" x2="827.75409" y2="524.64282"><stop offset="0" stop-color="#0A0A0A"/><stop offset="1" stop-color="#202E3F"/></linearGradient></defs><path fill="url(#gradient_4)" d="M816.768 531.488C807.961 526.186 824.4 508.291 831.462 512.139C832.412 513.6 832.467 514.492 832.196 516.221C831.254 521.963 828.166 527.132 823.556 530.682C820.691 531.846 819.774 532.312 816.768 531.488Z"/><path fill="#1E2C3A" d="M816.768 531.488L816.649 529.891C817.542 528.586 816.945 529.107 818.712 528.56C821.754 529.108 821.143 528.903 823.556 530.682C820.691 531.846 819.774 532.312 816.768 531.488Z"/><path fill="#FEFEFE" d="M827.875 513.931L828.498 515.23C828.075 520.898 823.627 526.827 817.734 527.418C815.57 523.154 824.524 515.86 827.875 513.931Z"/><path fill="#01050A" d="M831.729 505.111C833.947 504.614 834.741 505.396 836.533 506.689C844.459 524.385 819.273 548.494 810.55 534.994C810.5 534.797 810.449 534.601 810.399 534.404L810.177 533.473C808.969 528.508 809.232 525.806 811.354 521.247C811.537 521.857 811.818 523.089 812.17 523.506C807.468 544.916 827.984 535.503 833.167 524.053C835.95 517.905 839.38 509.137 831.729 505.111Z"/><path fill="#FEFEFE" d="M836.746 505.967C849.753 521.584 820.685 551.566 811.176 537.946C810.591 537.107 810.094 536.209 809.695 535.268L810.55 534.994C819.273 548.494 844.459 524.385 836.533 506.689L836.746 505.967Z"/><path fill="#374E5F" d="M810.121 520.96L811.354 521.247C809.232 525.806 808.969 528.508 810.177 533.473L810.399 534.404C810.449 534.601 810.5 534.797 810.55 534.994L809.695 535.268C806.909 531.079 808.418 525.248 810.121 520.96Z"/><path fill="#92F5FB" d="M802.876 487.958C802.771 491.402 794.446 498.732 794.694 502.199C798.014 500.079 797.8 495.635 800.938 495.125C789.972 511.498 784.357 529.365 786.183 549.098C781.535 542.854 788.314 516.264 792.039 509.748C792.525 508.898 792.586 508.55 792.833 507.582L792.432 506.247L792.012 506.27C786.227 516.003 782.835 536.713 784.029 548.186L783.26 549.5C782.127 540.147 783.415 531.481 785.328 522.378L786.863 516.846C789.905 506.874 795.879 495.708 802.876 487.958Z"/><path fill="#FEFEFE" d="M135.332 703.396C140.844 707.993 146.882 717.022 152.938 720.404C153.186 720.632 153.434 720.86 153.682 721.088C156.158 723.343 160.483 730.692 162.943 732.419C171.531 738.448 182.079 744.574 191.204 749.791C209.687 760.361 229.889 773.252 249.816 780.45C257.648 783.279 276.243 784.188 284.316 784.43C290.993 784.63 333.553 780.563 337.525 778.613C341.819 778.262 348.143 777.17 352.374 776.313C353.568 776.071 353.526 775.561 354.098 774.476L354.5 774.747C354.403 775.198 353.907 777.221 353.336 777.31C337.17 779.837 321.058 782.23 304.774 783.866C303.356 784.009 301.917 784.564 300.708 785.318L300.995 785.793C315.164 784.23 329.386 782.421 343.455 780.143C345.783 779.766 351.603 778.556 353.368 779.973C352.57 782.469 351.005 783.975 352.641 786.293C353.786 785.674 355.003 778.19 355.705 776.036C358.231 768.286 361.953 758.392 366.892 751.901L367.706 752.074C383.346 731.33 396.498 715.651 422.444 708.079C423.265 713.082 424.018 718.096 424.704 723.119C405.775 725.196 388.888 739.692 377.157 753.871C364.748 768.87 362.545 782.446 359.061 800.889C357.823 807.445 357.154 814.529 353.135 819.992C345.038 823.908 332.716 824.238 323.527 825.124C323.088 823.637 322.083 822.568 321.126 821.314L317.131 821.523L312.836 821.23C313.913 820.704 313.676 820.845 314.612 820.841C319.864 820.82 344.298 817.748 347.84 816.135C349.01 814.465 348.938 814.51 349.444 812.501L348.285 811.326L347.954 813.765L347.499 814.01C342.179 812.755 320.047 819.881 312.31 817.09C310.364 816.93 307.854 817.072 305.816 817.082C283.859 817.166 255.804 814.337 236.298 803.782C211.576 790.194 187.223 776.158 163.182 761.41C147.051 751.515 150.601 745.123 142.708 731.346L142.222 730.516L141.485 730.701C139.41 726.407 131.567 710.336 133.212 706.333L134.095 706.174C135.876 707.332 136.149 707.711 138.161 707.703C138.223 706.891 136.231 705.847 134.933 704.097L135.332 703.396Z"/><path fill="#01050A" d="M135.332 703.396C140.844 707.993 146.882 717.022 152.938 720.404C153.186 720.632 153.434 720.86 153.682 721.088C156.158 723.343 160.483 730.692 162.943 732.419C171.531 738.448 182.079 744.574 191.204 749.791C209.687 760.361 229.889 773.252 249.816 780.45C257.648 783.279 276.243 784.188 284.316 784.43C290.993 784.63 333.553 780.563 337.525 778.613C341.819 778.262 348.143 777.17 352.374 776.313C353.568 776.071 353.526 775.561 354.098 774.476L354.5 774.747C354.403 775.198 353.907 777.221 353.336 777.31C337.17 779.837 321.058 782.23 304.774 783.866C303.356 784.009 301.917 784.564 300.708 785.318L300.995 785.793C315.164 784.23 329.386 782.421 343.455 780.143C345.783 779.766 351.603 778.556 353.368 779.973C352.57 782.469 351.005 783.975 352.641 786.293C353.786 785.674 355.003 778.19 355.705 776.036C358.231 768.286 361.953 758.392 366.892 751.901L367.706 752.074C383.346 731.33 396.498 715.651 422.444 708.079C423.265 713.082 424.018 718.096 424.704 723.119C405.775 725.196 388.888 739.692 377.157 753.871C364.748 768.87 362.545 782.446 359.061 800.889C357.823 807.445 357.154 814.529 353.135 819.992C345.038 823.908 332.716 824.238 323.527 825.124C323.088 823.637 322.083 822.568 321.126 821.314L317.131 821.523L312.836 821.23C313.913 820.704 313.676 820.845 314.612 820.841C319.864 820.82 344.298 817.748 347.84 816.135C349.01 814.465 348.938 814.51 349.444 812.501L348.285 811.326L347.954 813.765L347.499 814.01C342.179 812.755 320.047 819.881 312.31 817.09C324.73 816.331 334.901 814.699 347.206 812.814C348.34 800.659 349.291 791.627 352.401 779.712C321.353 784.626 288.433 791.161 257.384 784.815C253.632 784.048 249.013 782.734 245.262 782.643L245.292 782.579C245.705 784.357 248.556 785.156 250.507 787.533L250.047 788.587C246.756 790.942 241.273 791.024 237.315 790.982C235.552 790.964 234.085 790.926 232.417 790.272C222.373 786.333 173.929 758.607 167.898 752.173C161.512 745.361 159.665 736.285 154.636 728.778C149.661 721.352 139.744 712.7 133.26 706.137C134.937 714.316 138.924 722.754 142.222 730.516L141.485 730.701C139.41 726.407 131.567 710.336 133.212 706.333L134.095 706.174C135.876 707.332 136.149 707.711 138.161 707.703C138.223 706.891 136.231 705.847 134.933 704.097L135.332 703.396Z"/><path fill="#FEFEFE" d="M367.706 752.074C383.346 731.33 396.498 715.651 422.444 708.079C423.265 713.082 424.018 718.096 424.704 723.119C405.775 725.196 388.888 739.692 377.157 753.871C364.748 768.87 362.545 782.446 359.061 800.889C357.823 807.445 357.154 814.529 353.135 819.992C345.038 823.908 332.716 824.238 323.527 825.124C323.088 823.637 322.083 822.568 321.126 821.314C329.021 820.37 338.019 819.377 345.785 817.784C347.731 817.385 349.385 816.253 349.847 814.241C351.038 809.057 351.693 802.367 352.36 797.029C354.738 777.969 358.42 768.486 367.706 752.074Z"/><path fill="#FEFEFE" d="M163.945 737.353C165.732 737.943 176.542 744.664 178.863 746.074C188.071 751.712 197.356 757.224 206.715 762.609C218.34 769.283 231.297 775.278 242.403 781.813L242.481 783.175C240.254 783.653 236.371 784.556 233.996 783.372C212.075 772.447 189.26 759.2 168.913 745.554C167.132 744.359 164.837 739.217 163.945 737.353Z"/><path fill="#647685" d="M165.079 744.782C165.147 744.805 173.469 751.76 174.944 752.757C193.351 765.188 212.998 775.801 232.655 786.102C236.632 788.186 244.058 785.004 248.715 786.989C245.771 787.849 235.566 788.525 233.102 787.223C220.724 780.681 169.9 754.973 165.079 744.782Z"/><path fill="#01050A" d="M273.075 789.525C284.996 790.467 296.202 790.408 308.133 790.236C309.613 790.215 311.161 790.673 312.485 791.334C316.418 795.955 311.322 806.503 307.536 810.19C297.412 814.914 276.223 812.225 269.429 802.546C265.665 797.182 267.867 792.534 273.075 789.525Z"/><path fill="#768E9A" d="M309.324 796.48C309.885 796.387 309.525 796.393 310.368 796.759C309.994 815.159 288.9 809.532 277.794 805.573C274.477 803.833 273.425 802.519 271.162 799.728C281.501 801.642 299.521 800.707 309.324 796.48Z"/><path fill="#FEFEFE" d="M273.581 792.982C279.446 793.075 285.548 793.667 291.529 793.738C295.637 793.787 303.232 793.216 306.861 793.802L307.235 794.349L304.392 795.372C297.948 796.798 277.212 799.56 271.877 796.752C271.77 795.406 272.803 794.218 273.581 792.982Z"/><path fill="#0D1725" d="M380.403 759.184C393.168 742.971 412.96 723.266 434.234 739.79C450.838 752.686 449.56 774.188 442.873 792.093C431.054 823.699 395.609 850.693 364.584 824.439C360.774 821.194 358.555 818.614 360.145 813.535L360.735 813.188C363.135 817.423 364.705 820.562 368.557 823.742C369.38 823.375 369.77 823.196 370.569 822.757C363.74 817.529 364.913 810.977 363.435 805.383L362.399 806.183C359.092 801.826 366.92 779.622 367.681 773.729C367.907 771.984 376.204 760.234 378.022 758.469L378.551 758.673C379.175 758.82 379.846 758.925 380.403 759.184Z"/><path fill="#FEFEFE" d="M380.403 759.184C393.168 742.971 412.96 723.266 434.234 739.79C450.838 752.686 449.56 774.188 442.873 792.093C431.054 823.699 395.609 850.693 364.584 824.439C360.774 821.194 358.555 818.614 360.145 813.535L360.735 813.188C363.135 817.423 364.705 820.562 368.557 823.742C370.509 825.311 372.354 826.778 374.467 828.129C388.565 837.142 406.682 831.077 418.621 821.332C433.006 809.426 442.19 792.387 444.226 773.826C445.878 757.395 438.942 739.019 419.967 736.371C410.773 735.087 399.993 741.927 393.391 747.877C379.891 760.047 371.545 778.675 370.681 796.824C370.248 805.439 372.914 818.769 379.922 824.508C382.379 826.52 386.265 827.599 388.262 829.767L387.76 830.094C385.264 830.146 381.678 829.294 379.717 827.782C359.494 812.195 369.34 776.744 380.403 759.184Z"/><path fill="#768E9A" d="M370.569 822.757C363.74 817.529 364.913 810.977 363.435 805.383L362.399 806.183C359.092 801.826 366.92 779.622 367.681 773.729C367.907 771.984 376.204 760.234 378.022 758.469L378.551 758.673C364.407 776.559 360.658 802.014 370.569 822.757Z"/><path fill="#01050A" d="M390.918 754.452C399.236 744.813 413.839 734.15 426.702 742.208C432.923 746.128 438.931 750.95 440.375 758.846C443.319 774.94 439.356 789.766 431.039 803.781C417.408 826.752 381.327 843.027 374.494 804.721C371.448 787.646 379.631 769.396 390.097 755.524C390.365 755.163 390.639 754.805 390.918 754.452Z"/><defs><linearGradient id="gradient_5" gradientUnits="userSpaceOnUse" x1="433.39841" y1="797.21149" x2="380.89197" y2="770.68262"><stop offset="0" stop-color="#667E87"/><stop offset="1" stop-color="#7F9BA9"/></linearGradient></defs><path fill="url(#gradient_5)" d="M419.968 742.887C423.049 743.045 423.759 742.845 426.702 742.208C432.923 746.128 438.931 750.95 440.375 758.846C443.319 774.94 439.356 789.766 431.039 803.781C417.408 826.752 381.327 843.027 374.494 804.721C371.448 787.646 379.631 769.396 390.097 755.524C390.365 755.163 390.639 754.805 390.918 754.452L391.551 755.172L391.47 756.523L391.724 758.14C384.492 766.499 379.79 776.744 378.168 787.677C373.881 816.073 392.792 830.624 416.298 811.885C426.99 803.188 433.894 790.684 435.558 777.002C437.265 761.722 431.834 746.657 414.362 745.317L412.026 744.37L419.968 742.887Z"/><defs><linearGradient id="gradient_6" gradientUnits="userSpaceOnUse" x1="407.80881" y1="739.62695" x2="406.7113" y2="755.58081"><stop offset="0" stop-color="#5A757F"/><stop offset="1" stop-color="#99B5BE"/></linearGradient></defs><path fill="url(#gradient_6)" d="M390.918 754.452C399.236 744.813 413.839 734.15 426.702 742.208C423.759 742.845 423.049 743.045 419.968 742.887L412.026 744.37C411.297 744.591 409.559 745.172 408.903 745.299C401.501 748.757 397.293 750.829 391.47 756.523L391.551 755.172L390.918 754.452Z"/><path fill="#01050A" d="M404.361 745.735C405.88 745.319 407.454 744.617 408.783 744.961L408.903 745.299C401.501 748.757 397.293 750.829 391.47 756.523L391.551 755.172C396.605 750.039 397.598 748.882 404.361 745.735Z"/><path fill="#647685" d="M404.361 745.735C408.781 741.811 414.494 741.209 419.968 742.887L412.026 744.37C411.297 744.591 409.559 745.172 408.903 745.299L408.783 744.961C407.454 744.617 405.88 745.319 404.361 745.735Z"/><path fill="#A2C1CA" d="M412.026 744.37L414.362 745.317C405.78 747.2 397.544 751.456 391.724 758.14L391.47 756.523C397.293 750.829 401.501 748.757 408.903 745.299C409.559 745.172 411.297 744.591 412.026 744.37Z"/><path fill="#FEFEFE" d="M413.023 749.591C444.264 747.929 438.756 803.267 400.842 816.481C370.625 824.093 374.757 759.052 413.023 749.591Z"/><path fill="#0D1725" d="M412.49 760.146C434.388 760.379 425.639 802.848 401.06 806.352C376.966 804.807 391.059 763.239 412.49 760.146Z"/><path fill="#FEFEFE" d="M401.104 801.691C384.001 798.238 394.859 773.805 404.84 767.41C418.208 758.844 424.743 770.907 420.571 783.059C417.761 791.247 414.369 795.956 406.53 800.066C404.582 800.545 402.95 800.862 401.104 801.691Z"/><defs><linearGradient id="gradient_7" gradientUnits="userSpaceOnUse" x1="416.34052" y1="786.8515" x2="398.10016" y2="778.57532"><stop offset="0" stop-color="#11171B"/><stop offset="1" stop-color="#1B2A3A"/></linearGradient></defs><path fill="url(#gradient_7)" d="M411.893 767.076C425.974 766.819 421.374 793.12 403.215 798.581C386.362 798.597 395.55 770.306 411.893 767.076Z"/><path fill="#0D1725" d="M409.277 792.934C406.864 794.151 402.819 795.915 400.43 793.904C393.003 787.653 405.825 763.648 415.368 773.491C417.458 775.646 417.045 777.821 417.063 780.582C415.645 786.606 414.457 789.083 409.277 792.934Z"/><path fill="#C6CCD3" d="M409.277 792.934C406.864 794.151 402.819 795.915 400.43 793.904C393.003 787.653 405.825 763.648 415.368 773.491C417.458 775.646 417.045 777.821 417.063 780.582L416.021 781.426C416.014 777.643 415.519 771.918 409.986 772.361C399.744 773.181 393.678 797.032 407.973 792.463L409.277 792.934Z"/><path fill="#768E9A" d="M416.021 781.426L417.063 780.582C415.645 786.606 414.457 789.083 409.277 792.934L407.973 792.463C412.761 789.227 414.504 787.013 416.021 781.426Z"/><path fill="#FEFEFE" d="M409.558 776.424C416.942 779.911 410.657 786.85 405.711 789.177C398.64 787.222 405.412 778.609 409.558 776.424Z"/><path fill="#1E2C3A" d="M401.104 801.691C402.95 800.862 404.582 800.545 406.53 800.066L408.015 800.941C406.574 803.902 400.825 804.423 398.045 803.633L398.456 802.577L397.725 803.029C399.116 801.778 399.743 802.24 401.104 801.691Z"/><path fill="#596670" d="M769.175 511.927L769.705 512.126C769.952 513.758 768.04 517.676 767.433 519.428C764.742 527.195 763.026 535.061 761.398 543.102C753.054 547.425 742.248 554.429 733.874 559.344C711.426 572.518 689.047 585.811 666.74 599.223L589.974 645.195C576.629 653.289 561.581 661.884 548.898 670.622L548.302 670.35C548.459 661.702 548.501 653.053 548.427 644.405C563.562 634.443 580.372 624.779 595.95 615.364L672.52 569.375C704.531 550.478 736.843 530.241 769.175 511.927Z"/><path fill="#FEFEFE" d="M759.959 548.076C760.297 548.502 759.349 563.599 759.368 565.561L548.662 692.016C547.472 690.301 547.914 678.305 547.924 675.46C559.657 667.229 576.125 657.717 588.515 650.274L639.524 619.529L759.959 548.076Z"/><path fill="#31F6FB" d="M556.806 96.2113C558.267 95.914 558.174 95.8832 559.62 96.1885C563.24 99.9985 541.661 130.578 537.803 135.253C536.061 135.057 534.784 134.416 534.072 132.784C535.031 128.885 548.496 109.829 551.757 105.476C545.161 110.355 539.029 113.532 532.017 117.723C524.791 122.042 517.609 126.548 510.407 130.925C481.927 148.402 453.359 165.736 424.705 182.927L209.801 313.11C170.707 336.615 130.201 360.287 91.5337 384.32L91.1593 384.548L90.5311 384.921C88.3867 386.211 86.9625 387.724 84.6284 386.5C83.1383 383.595 85.5328 381.592 88.0246 380.213C113.585 366.058 138.06 350.018 163.18 335.153C253.391 281.322 343.306 226.996 432.919 172.176L512.065 123.898C524.203 116.607 535.671 108.9 548.358 102.6C537.63 104.07 522.762 105.971 511.734 106.844C511.03 106.9 510.961 106.421 510.471 105.686C510.465 103.577 510.179 104.493 511.199 102.792C512.325 102.035 513.554 101.372 514.943 101.271C528.975 100.249 542.828 97.8426 556.806 96.2113Z"/><path fill="#31F6FB" d="M957.241 607.284C960.203 607.072 963.793 606.425 966.253 607.997C968.195 611.293 960.176 634.262 956.617 637.155C954.869 637.537 955.685 637.65 954.093 636.76C953.43 633.781 959.685 617.751 961.184 613.581C953.924 618.289 944.326 623.379 936.646 627.833L898.51 650.303L810.005 703.424L562.2 852.23C561.246 852.846 560.287 853.454 559.322 854.053C557.061 855.454 556.551 855.968 554.065 855.38C552.78 853.965 553.064 854.754 552.969 853.025C554.524 850.305 567.213 843.377 570.681 841.266L605.048 820.347C642.933 796.861 681.217 774.027 719.884 751.852C742.85 738.17 765.713 724.317 788.472 710.294L887.144 651.279L932.098 624.947C939.123 620.821 947.154 616.51 953.81 611.978C945.595 611.869 936.763 613.38 928.476 612.97C926.749 612.884 927.103 612.8 926.037 611.563C925.975 606.393 952.114 607.436 957.241 607.284Z"/><path fill="#596670" d="M544.346 646.994C545.274 648.642 544.58 669.45 544.517 672.994C515.556 690.194 486.888 709.079 458.072 725.991C456.297 723.298 454.351 720.759 452.421 718.176C449.249 714.192 447.989 712.86 443.746 710.241L503.329 672.721C516.984 664.244 530.983 655.883 544.346 646.994Z"/><path fill="#FEFEFE" d="M766.676 560.432C764.684 560.86 765.543 561.02 763.948 560.405C763.652 559.7 763.425 559.197 763.507 558.371C766.771 525.264 778.953 489.902 803.741 466.86C813.044 458.212 830.109 448.152 842.94 449.065C850.056 449.572 858.113 452.077 862.911 457.711C869.894 465.91 873.774 474.644 873.047 485.638C872.899 487.884 872.607 487.769 871.235 488.955L870.355 488.62C865.523 479.667 862.29 468.637 849.499 464.652C822.896 456.362 796.118 485.824 785.775 507.502C785.237 508.628 786.284 511.131 784.745 514.528L785.679 514.869C786.109 516.071 785.945 515.957 786.863 516.846L785.328 522.378C783.415 531.481 782.127 540.147 783.26 549.5C784.392 558.282 786.258 562.635 791.453 569.842C790.185 570.28 789.286 570.785 788.038 570.438C786.162 570.276 779.597 565.952 777.872 564.665L777.78 562.348L769.241 557.432C767.951 558.653 767.651 558.874 766.676 560.432Z"/><path fill="#0D1725" d="M769.241 557.432C772.972 543.085 774.162 531.608 780.457 516.73C789.165 495.906 804.088 473.754 826.009 465.083C849.941 455.616 862.984 468.405 871.235 488.955L870.355 488.62C865.523 479.667 862.29 468.637 849.499 464.652C822.896 456.362 796.118 485.824 785.775 507.502C785.237 508.628 786.284 511.131 784.745 514.528L785.679 514.869C786.109 516.071 785.945 515.957 786.863 516.846L785.328 522.378C783.415 531.481 782.127 540.147 783.26 549.5C784.392 558.282 786.258 562.635 791.453 569.842C790.185 570.28 789.286 570.785 788.038 570.438C786.162 570.276 779.597 565.952 777.872 564.665L777.78 562.348L769.241 557.432Z"/><path fill="#374E5F" d="M784.745 514.528L785.679 514.869C786.109 516.071 785.945 515.957 786.863 516.846L785.328 522.378L784.652 521.369L783.93 521.6C782.42 525.094 780.929 534.204 780.271 538.257C779.921 540.416 780.37 545.327 779.649 547.054C779.165 545.928 778.684 544.86 778.268 543.706C778.371 540.366 778.791 536.717 779.11 533.363C781.114 526.894 782.492 521.139 784.745 514.528Z"/><path fill="#1298B6" d="M777.78 562.348C780.244 562.246 780.561 561.803 782.487 563.706C784.394 565.591 786.463 568.253 788.038 570.438C786.162 570.276 779.597 565.952 777.872 564.665L777.78 562.348Z"/><path fill="#1E2C3A" d="M778.268 543.706C776.045 543.847 776.812 544.227 775.388 543.269C774.328 539.777 776.977 535.989 779.11 533.363C778.791 536.717 778.371 540.366 778.268 543.706Z"/><path fill="#374E5F" d="M779.041 548.821L779.483 549.004C780.616 550.581 780.543 553.175 780.361 555.025L779.808 555.101C778.508 553.868 777.543 553.148 776.749 551.535C777.124 549.751 777.111 550.264 779.041 548.821Z"/><path fill="#31F6FB" d="M679.519 849.118C689.681 849.41 706.585 848.66 715.673 849.637C714.717 856.35 712.317 864.588 710.6 871.226C709.97 873.662 709.459 875.612 707.371 876.739C705.444 876.524 706.183 876.952 705.025 875.511C704.178 871.173 707.502 861.206 708.664 856.153C703.101 859.891 696.962 862.926 691.076 866.173C684.476 869.828 677.959 873.632 671.53 877.581C634.021 900.287 596.37 922.758 558.581 944.993C531.487 930.266 504.854 912.994 477.539 898.286C470.998 901.787 451.96 914.084 446.587 915.595C445.323 914.976 445.898 915.415 445.192 913.716C445.946 907.684 465.566 900.623 471.395 895.479C471.046 894.353 470.091 894.102 468.809 893.257L433.812 872.939C429.673 870.535 414.942 864.498 417.966 859.056C419.606 858.646 420.32 858.822 421.986 859.696C432.788 865.363 443.484 872.668 454.131 878.485C489.291 897.696 523.522 919.624 558.73 938.591C571.59 931.68 583.859 923.826 596.385 916.351L648.677 885.373C666.456 874.747 683.073 864.477 701.308 854.521C696.111 855.099 685.143 855.475 679.956 854.326C678.53 854.01 678.264 853.267 677.765 852.244C677.976 850.594 678.401 850.344 679.519 849.118Z"/><path fill="#31F6FB" d="M766.676 560.432C767.651 558.874 767.951 558.653 769.241 557.432L777.78 562.348L777.872 564.665C773.526 566.666 762.316 573.835 757.581 576.677L714.231 602.811C643.727 644.935 573.494 687.51 503.534 730.531C490.249 738.823 464.698 754.676 450.725 763.404C450.429 763.387 450.132 763.371 449.835 763.355C449.648 762.491 449.467 759.203 449.613 759.103C457.596 753.682 474.967 743.337 482.341 738.739C550.627 696.113 619.354 654.199 688.513 613.004C698.538 606.931 768.653 566.481 769.988 562.599C769.161 561.305 768.595 561.229 767.173 560.634L766.676 560.432Z"/><path fill="#FEFEFE" d="M914.158 420.484L914.417 420.594C916.219 423.747 910.689 450.432 909.765 455.501C907.03 470.513 889.172 477.903 876.623 485.191C876.561 480.291 876.493 477.961 875.55 473.175C872.527 463.555 868.584 458.086 861.736 450.843C872.707 445.236 884.036 437.83 894.677 431.536C900.554 428.06 907.972 422.859 914.158 420.484Z"/><path fill="#FEFEFE" d="M543.798 677.471C544.255 677.511 543.943 677.446 544.591 678.007C544.931 683.033 544.601 689.661 544.485 694.811C525.528 706.265 506.752 718.016 488.164 730.06C485.095 732.007 466.658 744.43 464.444 744.437L463.97 743.329C462.506 737.992 461.432 734.717 459.514 729.545C466.153 726 474.809 719.76 481.682 715.657C502.308 703.343 523.009 689.351 543.798 677.471Z"/><path fill="#647685" d="M435.792 611.116C441.366 615.169 448.326 618.785 453.433 622.998L453.53 648.264C453.544 652.329 453.758 658.927 453.244 662.798C447.814 660.496 439.853 655.207 435.762 650.98C435.331 638.894 435.818 623.449 435.792 611.116Z"/><path fill="#FEFEFE" d="M425.821 707.495C435.258 708.407 441.167 711.207 447.813 718.773C453.4 725.133 460.363 738.063 460.819 746.977C460.857 747.715 460.192 747.868 459.346 748.438L454.331 751.374C450.835 735.828 445.808 724.481 427.856 722.951C427.036 717.696 426.226 712.814 425.821 707.495Z"/><path fill="#31F6FB" d="M143.746 416.055C148.535 415.853 180.84 416.454 183.902 417.366C184.364 422.127 181.865 429.472 180.749 434.243C179.901 437.869 178.862 444.56 175.182 445.928L174.064 445.394C173 443.193 177.588 426.746 178.432 423.161L170.105 428.274C165.434 431.258 148.666 444.441 144.292 441.109L144.205 440.121C145.757 437.631 166.628 424.844 171.416 421.537L151.143 421.176C148.42 421.106 144.789 421.237 142.906 419.247C142.624 417.329 142.593 418.063 143.746 416.055Z"/><defs><linearGradient id="gradient_8" gradientUnits="userSpaceOnUse" x1="432.20349" y1="617.9505" x2="469.6604" y2="645.41705"><stop offset="0" stop-color="#708393"/><stop offset="1" stop-color="#819DA5"/></linearGradient></defs><path fill="url(#gradient_8)" d="M444.137 605.49C447.67 605.853 463.403 615.98 463.841 620.345C464.957 631.463 464.471 643.738 464.428 655.004C462.125 657.325 460.796 658.213 458.139 660.108L457.575 660.265C455.875 658.059 458.08 629.523 457.04 624.537C455.695 618.089 442.907 611.57 437.532 608.116C439.605 607.198 442.004 606.324 444.137 605.49Z"/><path fill="#31F6FB" d="M278.67 355.9L280.176 356.19C281.723 357.523 281.318 356.724 281.648 358.549C280.58 361.302 262.765 371.637 259.194 373.856C245.325 382.524 231.389 391.086 217.39 399.542C215.699 398.995 214.932 398.352 214.443 396.679C215.714 394.026 270.286 361.076 278.67 355.9Z"/><path fill="#31F6FB" d="M419.46 926.365C421.15 926.884 421.744 927.509 422.248 929.179C421.869 930.388 421.92 930.786 420.638 931.568C415.13 934.929 409.275 938.376 403.753 941.654L366.183 963.832C363.993 963.294 363.227 962.301 363.016 960.14C364.063 957.92 413.301 929.559 419.46 926.365Z"/><path fill="#31F6FB" d="M105.602 460.828C105.88 460.899 106.747 461.315 107.047 461.45C108.214 463.298 108.061 462.364 107.867 464.273C105.066 467.811 57.2032 495.174 49.8096 499.879C47.952 499.678 47.3417 497.703 47.7122 496.028C49.8363 493.883 52.8152 491.942 55.4375 490.43C72.2397 480.744 88.7473 470.406 105.602 460.828Z"/><path fill="#31F6FB" d="M101.493 791.869C103.673 792.517 104.159 793.004 104.532 795.102C103.466 797.886 78.1842 811.775 73.7365 814.755C69.2447 817.764 60.5393 823.302 55.8387 825.881C53.6905 825.416 52.9231 823.882 53.0127 821.889C55.3579 818.893 96.3999 794.404 101.493 791.869Z"/><path fill="#31F6FB" d="M215.641 490.065C215.44 486.893 215.102 485.643 217.34 483.216C218.976 481.315 221.852 480.638 223.713 482.765C228.69 488.454 226.348 496.672 225.519 503.346C225.019 507.368 226.336 508.768 223.422 512.225C222.321 513.947 220.091 518.065 218.484 518.728C217.748 517.42 218.056 516.802 218.074 515.048C217.857 509.357 216.743 501.297 216.085 495.439C216.093 493.459 215.883 492.038 215.641 490.065Z"/><path fill="#647685" d="M215.641 490.065C215.44 486.893 215.102 485.643 217.34 483.216C218.976 481.315 221.852 480.638 223.713 482.765C228.69 488.454 226.348 496.672 225.519 503.346C225.019 507.368 226.336 508.768 223.422 512.225C223.587 506.232 225.247 493.219 220.644 489.363C218.676 489.741 217.628 489.932 215.641 490.065Z"/><path fill="#374E5F" d="M215.641 490.065C217.628 489.932 218.676 489.741 220.644 489.363L219.134 492.144C218.607 498.702 218.887 509.718 218.074 515.048C217.857 509.357 216.743 501.297 216.085 495.439C216.093 493.459 215.883 492.038 215.641 490.065Z"/><path fill="#596670" d="M215.641 490.065C217.628 489.932 218.676 489.741 220.644 489.363L219.134 492.144C217.796 493.05 217.6 494.324 217.039 495.912L216.582 496.089L216.085 495.439C216.093 493.459 215.883 492.038 215.641 490.065Z"/><path fill="#768E9A" d="M430.73 616.337C432.302 618.51 431.476 646.339 431.56 651.297C432.6 652.991 433.785 654.484 434.982 656.068L427.802 660.502L426.2 661.282L425.672 660.771C424.966 650.867 425.576 632.322 425.813 621.966C427.646 619.031 428.058 618.634 430.73 616.337Z"/><path fill="#31F6FB" d="M985.963 384.378C988.029 385.035 988.597 385.85 988.33 387.789C985.287 391.211 960.069 405.94 954.64 409.088C954.065 408.974 953.594 408.684 953.037 408.419C952.132 406.838 952.274 407.645 952.449 405.945C954.98 401.91 980.41 387.325 985.963 384.378Z"/><path fill="#92F5FB" d="M317.131 821.523L321.126 821.314C322.083 822.568 323.088 823.637 323.527 825.124C314.898 826.196 298.903 827.167 290.296 826.072C292.241 825.664 292.859 825.861 293.349 824.037C292.04 822.443 292.087 822.84 289.882 821.96C297.574 822.379 309.522 822.89 317.131 821.523Z"/><path fill="#FEFEFE" d="M908.186 414.065C911.636 414.31 914.457 412.553 916.245 412.884C916.339 414.971 914.281 415.944 912.703 416.904L910.235 418.42C910.011 416.671 909.125 415.585 908.186 414.065Z"/><path fill="#FEFEFE" d="M914.412 342.925C915.298 343.977 914.928 343.396 915.112 345.039C914.299 346.469 913.186 346.886 911.736 347.725C911.517 347.518 911.252 347.032 911.075 346.75C911.538 345.277 913.201 344.037 914.412 342.925Z"/></svg>