<?xml version="1.0" encoding="utf-8" ?><svg xmlns="http://www.w3.org/2000/svg" xmlns:xlink="http://www.w3.org/1999/xlink" width="1024" height="1024" viewBox="0 0 1024 1024"><path fill="white" d="M0 0L1024 0L1024 1024L0 1024L0 0Z"/><path d="M516.764 227.186C524.467 226.507 534.73 227.654 542.018 230.246C546.024 231.445 551.27 234.202 555.382 234.469C571.018 235.486 588.156 235.02 603.404 239.054C618.579 243.328 632.788 250.188 647.19 256.429C661.572 262.662 674.859 270.719 688.484 278.374L738.925 306.472C766.18 321.518 793.253 336.891 820.138 352.59C844.573 366.635 869.857 380.708 892.465 397.614C903.963 406.212 915.406 416.366 922.722 428.859C929.699 440.77 935.904 462.908 937.597 476.836C938.554 484.713 938.117 502.001 936.015 509.67C935.2 512.641 933.822 515.863 931.724 518.163C927.345 522.962 900.507 539.318 893.22 543.537L884.495 539.421C886.793 568.778 860.534 621.196 823.208 618.957C817.344 618.605 790.851 602.663 783.451 598.731C770.55 605.902 758.523 613.311 745.845 620.838C724.183 633.407 702.675 646.239 681.324 659.329L516.499 756.785C513.487 758.526 512.553 759.342 509.285 758.427L507.616 757.969C505.666 757.438 507.285 759.456 505.349 760.998C503.443 762.516 500.612 763.908 498.452 765.098C498.879 767.155 499.15 769.241 499.262 771.339C500.455 791.181 487.931 814.983 475.154 829.585C466.057 838.952 447.956 851.866 434.738 848.773C423.519 846.148 403.199 832.755 392.475 826.847C378.274 833.705 363.929 843.359 349.991 850.959C343.176 854.633 336.249 859.485 328.769 861.621C319.779 864.189 308.277 862.236 300.228 857.709C284.02 848.593 268.202 838.789 252.262 829.232L184.928 789.295L117.501 749.382C107.38 743.4 97.2327 737.507 87.1219 731.461C79.3726 726.827 77.5472 717.504 79.2121 709.175C80.6689 701.887 86.3346 698.839 92.1203 695.265L92.0196 629.27C91.9956 618.043 91.7368 605.812 92.1409 594.669C92.3013 590.249 95.1411 579.172 96.2851 574.207L103.85 541.557L115.667 490.656C117.985 480.582 120.224 470.358 122.815 460.353C123.541 457.546 125.327 452.597 126.917 450.191C127.897 448.707 131.125 446.362 132.712 445.434C151.866 434.238 171.28 423.418 190.46 412.273L336.805 327.196L455.237 258.451C471.316 249.244 487.31 239.685 503.51 230.714C507.859 228.306 511.909 227.731 516.764 227.186Z"/><path fill="white" d="M518.454 230.715C540.881 230.716 556.78 239.339 576.295 249.253C620.571 271.745 679.291 300.132 709.221 340.884C705.665 343.316 699.557 346.53 695.55 348.801L665.048 365.811C640.878 379.334 616.485 393.661 592.473 407.54L383.017 530.364C374.497 535.305 337.373 558.429 330.82 559.825C324.899 556.571 318.133 552.218 312.218 548.719L271.677 524.705L212.972 490.046C188.859 475.638 162.967 459.831 138.46 446.32C162.643 431.355 190.047 416.685 214.819 402.312L365.102 315.035L460.082 259.807C475.076 251.126 490.255 242.231 505.415 233.84C509.756 231.437 513.646 231.063 518.454 230.715Z"/><path d="M527.786 235.472C528.956 235.516 528.51 235.28 529.201 236.011C528.132 238.08 501.435 252.691 497.106 255.172L434.577 291.223L251.455 397.654C227.292 411.535 202.992 425.31 178.997 439.486C174.956 441.874 173.838 443.531 174.198 448.258C177.688 451.536 192.582 460.268 197.359 463.122C214.441 473.286 231.578 483.357 248.769 493.335L302.367 525.263C311.465 530.743 323.29 538.439 332.327 543.146C336.593 541.607 345.407 536.012 349.663 533.459C359.706 527.389 369.796 521.397 379.931 515.483L585.168 395.754C609.059 381.822 633.03 368.027 657.078 354.369C665.459 349.61 673.779 344.825 682.043 339.867C684.086 338.642 686.64 336.829 688.987 337.347L689.343 338.401C675.08 347.63 653.822 358.496 638.515 367.409L499.526 448.02C457.52 472.803 415.393 497.617 373.219 522.102C363.704 527.627 341.102 542.093 332.274 545.441C327.727 543.521 321.259 539.334 316.922 536.705C309.388 532.115 301.831 527.564 294.25 523.052L209.36 472.805C199.539 466.986 189.68 461.178 179.867 455.35C171.68 450.487 170.361 450.384 173.405 440.833C177.382 437.051 210.684 418.334 217.533 414.403L313.124 359.265L453.865 277.408L497.976 251.982C506.75 246.918 518.861 239.51 527.786 235.472Z"/><path d="M387.906 353.915C390.409 354.603 393.38 356.47 395.649 357.825C421.491 373.262 447.765 387.988 473.492 403.606C474.68 404.328 479.44 407.35 479.91 408.531C482.642 415.397 475.377 418.729 470.137 420.461C463.334 419.366 432.282 399.502 424.225 394.769L397.615 379.17C391.689 375.684 382.701 370.807 377.939 366.381C375.04 359.919 383.486 356.281 387.906 353.915Z"/><path fill="white" d="M387.97 356.333C395.592 359.511 476.2 407.374 477.658 409.597C478.172 410.381 478.087 411.929 477.749 412.77C476.499 415.886 472.435 417.045 469.534 417.998C462.764 416.67 448.108 405.551 440.884 402.038C439.308 401.271 430.412 395.943 429.407 395.214C422.103 389.911 380.053 368.678 379.674 363.404C381.096 359.753 384.482 358.424 387.97 356.333Z"/><path d="M486.491 301.927C489.262 302.676 565.03 347.578 573.784 353.929C574.734 354.618 574.057 359.533 573.849 361.301C570.578 364.385 568.22 365.369 563.996 366.493C561.594 365.804 559.387 364.865 557.25 363.574C543.74 355.41 530.167 347.354 516.54 339.386L492.054 325.033C487.101 322.107 480.078 318.266 475.944 314.592C473.11 308.248 482.179 304.285 486.491 301.927Z"/><path fill="white" d="M486.548 304.529C504.38 314.306 523.035 325.98 540.659 336.227C547.942 340.462 565.552 350.358 571.505 354.931C574.199 360.55 567.762 362.715 563.652 364.001C560.209 363.224 485.287 318.764 478.282 313.692C476.508 308.828 483.09 306.393 486.548 304.529Z"/><path d="M301.092 414.45C302.445 414.418 303.952 414.449 305.161 415.095C316.087 420.922 326.955 427.832 337.638 434.067L370.034 453.028C374.183 455.47 389.039 463.226 390.619 467.018C393.116 473.011 385.838 476.613 380.626 478.01C375.445 477.094 349.361 460.659 343.242 457.061L315.065 440.636C309.204 437.222 296.507 430.21 292.064 425.688C290.512 419.802 296.897 417.076 301.092 414.45Z"/><path fill="white" d="M302.218 416.482C309.525 418.713 327.176 430.875 334.952 435.202C351.565 444.445 368.054 454.827 384.549 464.343C393.498 469.507 386.784 473.381 380.632 475.702C376.726 475.203 300.001 429.505 294.606 424.913C294.117 420.27 298.737 418.561 302.218 416.482Z"/><path fill="white" d="M561.726 238.157C577.918 239.18 593.814 239.434 609.381 244.692C636.592 253.883 660.081 266.741 685.092 280.539C705.246 291.57 725.317 302.754 745.303 314.089C778.946 332.47 812.253 351.461 845.206 371.052C869.241 385.653 892.478 398.915 911.811 419.727C903.917 426.589 894.742 433.334 899.93 445.052C905.384 457.372 912.682 468.231 916.519 481.358C898.578 492.808 888.674 492.824 892.855 516.039C888.158 507.385 882.665 500.821 872.856 497.58C864.2 494.72 852.393 498.511 844.701 502.934C817.706 518.457 799.815 548.724 786.959 576.248C783.631 583.372 780.164 590.122 777.696 597.559C751.691 611.746 514.847 755.265 510.234 754.938C504.864 750.676 507.77 728.509 488.454 721.314C483.608 719.507 478.401 718.876 473.263 719.472C471.55 719.672 470.502 719.885 469.173 720.991L468.889 722.02L469.331 722.74L469.76 722.682C486.417 720.545 496.565 727.513 502.231 743.108C497.649 736.42 491.992 729.164 483.469 727.74C471.221 725.693 456.946 732.693 447.456 739.831C429.263 753.518 415.684 775.747 409.046 797.441C407.527 802.407 407.183 810.37 403.802 814.367C399.703 819.212 355.753 844.058 347.04 848.583C346.994 836.974 346.713 836.408 336.345 831.279C347.463 824.566 358.663 817.993 369.945 811.561C373.96 809.244 390.155 800.243 392.698 797.644L392.969 796.522L393.328 796.613L393.115 797.079L392.779 796.462C390.619 796.948 388.528 797.865 386.589 798.928C368.766 808.697 351.352 819.809 333.604 829.675C333.537 812.134 334.135 793.936 334.446 776.351C335.017 743.894 335.361 711.434 335.479 678.972C335.43 640.685 333.268 601.689 332.697 563.262C342.372 559.427 357.972 549.562 367.515 543.903L420.299 512.613C468.689 483.771 518.083 456.066 566.359 427.15C571.366 476.645 573.798 526.367 573.646 576.115L427.446 662.411L386.503 686.422C381.168 689.551 369.39 696.051 364.918 699.554C364.7 707.127 364.15 722.77 364.713 730.191C372.357 726.392 381.526 720.698 389.047 716.359L439.526 687.03L529.552 634.52C543.927 626.042 559.874 617.038 573.911 608.226C573.945 614.482 574.517 705.144 570.865 708.472C566.177 712.744 527.808 732.692 518.848 738.775C515.298 724.446 508.725 705.653 490.38 705.939C489.473 705.953 488.98 706.704 488.467 707.294L488.609 708.057C493.925 711.335 498.719 707.352 506.488 717.82C508.359 720.389 509.928 723.165 511.161 726.095C512.468 729.113 515.888 741.562 517.641 742.053C521.504 740.536 526.881 737.592 530.466 735.369C545.553 726.015 562.403 718.781 576.554 708.112C578.583 706.582 580.506 705.375 582.678 704.082L650.582 663.781C664.737 655.388 679.686 646.972 693.324 637.863C694.908 638.852 695.792 639.644 697.643 639.702L698.824 639.112C699.323 636.371 697.694 635.982 695.734 634.532C695.932 623.136 698.203 610.739 699.473 599.326C700.925 586.267 702.287 571.828 702.553 558.73C703.349 555.985 702.559 554.327 703.879 551.567L703.979 552.429C706.118 571.533 702.976 594.591 702.201 614C699.721 630.692 715.363 624.436 723.188 620.194C730.575 616.191 770.361 593.6 772.573 588.901C785.265 561.945 811.415 507.911 822.513 482.71C824.581 478.114 826.515 473.459 828.313 468.751C829.195 466.395 831.416 460.179 832.287 458.215C834.811 455.214 849.386 454.803 850.269 450.197C851.672 442.88 851.295 430.151 850.412 422.656C849.638 416.087 832.091 411.704 828.91 408.124C831.627 403.991 855.636 394.886 859.157 390.218C858.799 388.517 852.603 384.913 850.813 383.745C837.601 375.105 824.317 366.576 810.961 358.161C791.208 345.661 771.857 331.862 748.317 327.49C735.54 325.116 722.8 331.749 711.356 336.174C700.107 324.912 688.901 313.291 676.191 303.61C647.741 281.94 615.827 264.047 583.576 248.685C576.256 245.199 568.941 241.755 561.726 238.157Z"/><path d="M415.365 764.696L416.358 765.159C416.556 767.185 414.243 770.636 413.211 772.417C405.947 784.951 401.668 798.623 397.544 812.372C397.167 812.2 396.725 811.86 396.366 811.614C395.752 802.489 409.383 772.932 415.365 764.696Z"/><path d="M456.622 723.906L457.513 724.517C457.786 726.48 454.389 728.011 452.445 729.139C440.45 736.098 431.501 745.798 423.504 757.104L422.287 756.47L422.151 755.569C427.906 744.653 445.427 729.045 456.622 723.906Z"/><path fill="white" d="M214.452 516.615C228.77 524.203 245.33 535.465 259.934 543.896C271.801 551.693 287.038 558.811 297.894 567.586C305.493 573.728 304.57 598.238 304.743 606.683C305.077 620.818 305.284 634.955 305.365 649.093C305.399 654.435 305.315 659.91 305.473 665.234C306.206 689.87 304.535 714.326 304.154 738.932L303.29 823.509L299.253 821.133C268.408 802.477 236.719 784.669 205.782 765.869C205.562 761.317 205.498 756.722 205.595 752.167C206.137 726.704 205.064 701.073 207.023 675.675C207.406 670.706 207.857 665.72 208.13 660.748L211.36 591.013C212.543 567.09 214.164 540.517 214.452 516.615Z"/><path d="M230.168 546.494C235.038 546.37 249.326 556.765 254.427 559.681C264.376 565.371 274.637 571.132 284.386 577.244C290.584 581.129 292.955 586.369 293.509 593.47C294.971 623.98 296.407 654.629 296.931 685.166C297.049 692.074 294.34 695.833 287.921 698.193C287.077 698.137 286.248 698.066 285.419 697.889C280.692 696.879 234.67 669.139 229.919 665.44C227.648 663.672 225.822 661.522 224.279 659.103C221.713 655.085 220.971 650.626 220.654 645.939C220.273 640.307 220.937 634.394 221.188 628.754L222.597 596.888L223.979 565.572C224.218 561.046 224.344 555.607 225.22 551.144C225.699 548.698 228.163 547.561 230.168 546.494Z"/><path fill="white" d="M230.247 549.414C234.657 549.263 246.613 558.024 250.907 560.602L273.152 573.705C288.599 582.826 290.785 583.014 291.225 601.722C291.883 629.704 294.031 657.877 294.529 685.879C294.627 691.384 292.046 693.923 287.142 695.528C278.476 694.293 242.62 668.915 232.312 664.033C224.137 660.16 222.793 647.799 223.258 639.219C224.735 611.91 225.418 583.998 227.029 556.638C227.256 552.683 227.195 551.995 230.247 549.414Z"/><path d="M222.351 731.028C223.755 731.278 224.987 731.67 226.222 732.433C241.789 742.046 257.394 751.604 273.223 760.787C277.733 763.403 282.254 765.95 286.527 768.929C287.016 774.044 288.382 784.598 284.599 788.149C280.569 786.801 222.109 751.082 220.87 749.501C218.611 746.616 219.242 737.958 219.877 734.45C220.22 732.558 220.77 732.069 222.351 731.028Z"/><path fill="white" d="M222.617 734.142C226.484 735.547 238.339 743.153 242.604 745.712L284.136 770.608C284.147 775.267 284.044 779.925 283.829 784.579C279.644 783.023 266.897 774.714 262.177 771.818C249.024 763.714 235.791 755.741 222.48 747.9C222.383 743.081 222.269 738.97 222.617 734.142Z"/><path d="M219.003 679.296C222.966 679.291 234.752 687.503 238.948 689.717C248.136 694.565 256.771 699.18 246.948 709.334C241.331 708.04 222.723 695.582 216.992 691.477C212.979 688.602 215.761 682.41 219.003 679.296Z"/><path fill="#81899E" d="M219.198 683.329C223.448 685.181 242.941 696.124 247.306 699.925C248.251 700.748 247.066 703.79 246.519 705.202C242.018 703.078 221.025 691.17 218.481 687.834C217.964 686.08 218.57 685.084 219.198 683.329Z"/><path fill="white" d="M138.893 473.774C143.786 474.093 167.077 488.545 172.812 492.018C184.741 499.243 199.779 507.229 211.271 515.026C210.828 539.283 209.909 563.529 208.516 587.75L205.034 658.281C204.482 668.109 203.149 679.041 202.879 688.609C202.174 713.618 202.757 738.609 202.072 763.676L192.946 758.442C167.463 743.633 142.169 727.873 116.457 713.136C115.624 683.207 115.577 649.191 115.917 619.225C116.071 607.531 116.771 595.85 118.015 584.222C119.365 572.677 121.135 561.507 123.311 550.101C126.379 534.408 128.464 518.131 132.043 502.566C133.532 496.09 134.894 477.682 138.893 473.774Z"/><path d="M145.45 496.936C147.021 496.95 148.455 497.068 149.936 497.63C156.06 499.956 162.021 504.456 167.673 507.807C175.584 512.499 184.58 516.931 191.844 522.529C193.816 524.049 196.614 526.383 197.473 528.76C199.425 534.163 198.925 620.075 198.293 631.979C198.157 634.546 198.018 638.2 196.803 640.469C195.795 642.355 194.083 643.767 192.039 644.398C188.292 645.517 185.034 644.096 181.755 642.464C179.529 641.29 177.135 639.789 174.982 638.447C162.137 630.444 148.828 623.144 136.15 614.89C130.889 611.464 128.71 607.469 126.556 601.835C123.409 593.812 125.743 585.378 127.241 577.138C131.643 552.922 136.172 528.649 140.66 504.441C141.434 500.268 141.904 499.287 145.45 496.936Z"/><path fill="white" d="M145.465 499.395C146.928 499.41 148.092 499.501 149.458 500.153C155.323 502.952 160.774 506.865 166.422 510.204C174.253 514.833 182.433 519.305 190.014 524.293C191.459 525.244 194.561 528.135 195.091 529.839C195.601 531.476 195.936 534.785 195.943 536.624C196.013 555.269 195.828 574.015 195.78 592.653L195.686 621.059C195.627 631.351 198.048 648.172 181.803 639.379C172.575 633.752 163.3 628.2 153.98 622.725C144.392 617.05 126.47 608.028 127.565 595.636C129.68 571.691 136.702 544.897 140.354 520.851C141.104 515.917 143.103 502.473 145.465 499.395Z"/><path d="M132.7 652.741C136.252 653.601 188.157 685.052 191.52 688.146C192.13 698.748 191.675 709.744 191.899 720.386C191.965 723.532 192.265 729.179 190.285 731.645C185.634 731.134 131.194 699.916 130.928 695.889C130.452 688.658 129.306 658.177 132.7 652.741Z"/><path fill="white" d="M133.767 656.117C135.33 656.718 151.661 666.418 154.122 668.036C164.368 674.774 179.494 682.359 188.938 689.407L188.962 728.79C180.962 725.058 168.379 717.125 160.299 712.348C152.551 707.768 140.606 701.236 133.498 696.308C132.954 687.788 133.16 664.662 133.767 656.117Z"/><path fill="white" d="M739.269 331.185C769.849 329.321 827.158 373.489 854.27 389.775C848.218 393.019 842.204 396.334 836.23 399.719C819.204 386.886 788.66 354.117 768.773 347.154C762.297 344.881 755.308 344.492 748.62 346.034C740.78 347.836 727.18 355.727 719.374 359.796C709.107 365.182 698.758 370.411 688.332 375.482C692.774 389.93 695.473 395.647 698.802 411.516C700.374 419.112 701.678 426.761 702.714 434.449C704.038 444.163 705.001 453.83 706.686 463.496C708.247 472.456 713.089 479.515 723.184 475.494C746.165 466.342 769.065 456.468 791.268 445.529C799.26 441.591 809.265 437.776 816.675 432.954C817.149 419.566 814.452 406.256 808.802 394.109C801.683 378.899 771.767 350.628 752.866 353.813C737.765 356.358 718.62 370.396 704.056 376.465C700.839 377.805 696.446 381.792 693.319 380.435C692.459 378.668 692.637 379.584 692.838 377.572L694.18 376.686L723.351 361.611C741.558 352.214 755.155 343.159 775.086 354.706C794.24 365.752 808.748 383.357 815.929 404.269C817.457 408.58 819.388 414.164 819.62 418.861C820.072 428.003 818.488 439.146 820.287 448.088C821.009 451.675 827.007 454.002 830.138 455.516C827.022 460.839 824.968 468.922 822.403 474.783C806.185 511.853 787.436 547.77 771.156 584.823C768.607 590.624 754.83 596.89 749.798 600.733C739.977 606.52 718.077 622.442 706.932 621.315C706.501 621.06 706.071 620.805 705.64 620.55C705.004 616.996 705.608 611.955 705.882 608.443C707.58 586.621 709.634 563.988 706.335 542.25C705.552 537.112 704.54 531.923 704.243 526.728C701.801 483.519 697.293 440.4 688.016 398.085C685.169 385.102 681.559 376.33 676.203 364.275C685.627 357.454 702.334 349.923 712.534 343.474C712.912 343.235 713.588 340.301 713.986 339.326C721.807 335.068 730.401 332.107 739.269 331.185Z"/><path d="M737.83 507.943C738.882 507.931 739.439 508.025 740.5 508.136C744.313 510.275 744.719 516.81 741.581 519.457C736.353 523.869 727.976 528.133 722.094 531.546C715.646 531.719 716.536 525.414 716.461 520.687C723.17 516.053 730.66 511.832 737.83 507.943Z"/><path fill="#6E7593" d="M738.241 511.47C739.354 511.715 739.119 511.792 740.139 512.659C740.428 513.518 740.736 514.26 740.378 515.13C738.787 519.004 725.158 525.948 721.387 528.117C719.54 527.264 719.355 525.487 719.685 523.733C722.311 519.588 733.534 514.03 738.241 511.47Z"/><path fill="#81899E" d="M666.479 369.397L667.337 369.524C673.916 377.026 681.534 425.358 683.23 437.149C689.622 479.222 691.522 521.855 688.896 564.329C688.071 576.601 687.133 588.825 685.818 601.057C684.746 611.027 682.854 621.35 682.314 631.313C662.003 642.032 639.263 656.737 619.176 668.429C606.024 676.084 588.951 685.535 576.818 693.623L577.517 637.863C577.693 618.434 577.707 599.004 577.558 579.575C577.503 568.292 577.671 556.103 577.085 544.889C599.622 559.049 622.344 572.912 645.245 586.475C652.859 591.013 666.376 599.872 673.862 603.231C677.718 600.927 680.43 598.367 683.623 595.271C683.831 591.309 683.759 587.005 683.713 583.006C683.268 543.918 686.317 504.763 681.18 465.877C678.535 445.855 676.067 426.083 671.372 406.39C668.543 394.522 667.335 383.103 661.883 372.064L666.479 369.397Z"/><path fill="#D7D6D5" d="M752.711 357.122C753.676 357.073 754.641 357.044 755.607 357.036C769.809 356.949 784.848 370.829 794.965 379.977C807.721 391.512 813.455 413.795 813.529 430.824C808.468 434.197 799.196 438.063 793.432 440.814C778.087 448.311 762.563 455.434 746.872 462.177C739.225 465.151 731.78 468.832 724.077 471.786C717.347 474.367 711.714 473.452 710.465 465.314C706.249 437.85 704.065 411.156 695.258 384.53C708.965 378.94 740.837 359.011 752.711 357.122Z"/><path fill="white" d="M134.142 448.324C138.155 449.949 148.602 456.26 152.835 458.724L193.501 482.919L329.088 563.008L331.696 676.617C323.047 679.226 317.539 677.379 309.369 674.589C308.583 648.95 308.349 621.22 307.888 595.394C307.568 583.877 307.316 569.128 296.828 561.997C292.457 559.025 287.885 556.483 283.363 553.756C275.049 548.684 266.704 543.662 258.328 538.692L192.23 499.329L161.06 480.808C155.456 477.494 142.529 468.239 136.352 471.193C131.784 476.112 130.776 489.405 129.503 496.493L124.239 524.805C122.837 532.761 121.523 541.678 119.698 549.471C115.738 547.726 110.612 545.551 107.056 543.264C114.49 513.771 119.683 483.271 128.59 454.196C129.27 451.975 132.324 449.582 134.142 448.324Z"/><path fill="white" d="M473.032 746.12C477.533 745.635 482.066 746.686 485.895 749.103C491.703 752.785 493.873 758.473 495.42 764.832C499.597 781.998 491.133 802.054 482.038 816.378C473.402 829.979 460.413 841.929 444.139 845.421C431.522 846.757 423.685 842.253 421.164 829.107C415.182 797.921 441.059 752.326 473.032 746.12Z"/><path d="M465.179 768.121C490.478 764.422 476.093 814.834 449.816 821.499C433.143 822.587 435.65 805.898 440.023 795.495C444.976 783.711 453.144 773.106 465.179 768.121Z"/><path fill="white" d="M466.264 770.023C487.477 769.824 472.065 814.003 449.101 819.543C438.138 819.578 437.577 810.293 440.007 801.921C443.895 788.527 452.648 774.929 466.264 770.023Z"/><path d="M461.642 776.048C481.987 776.383 459.106 818.311 445.021 810.647C444.115 810.155 443.562 807.411 443.614 806.469L444.24 806.053L446.118 808.826C452.964 812.475 460.18 802.571 463.465 797.565C465.916 793.162 472.16 778.544 462.294 778.493C456.061 778.461 451.037 786.529 448.509 791.498C447.26 793.954 446.298 798.106 444.504 800.147L443.942 799.794C443.259 791.931 454.12 778.85 461.642 776.048Z"/><path fill="white" d="M857.063 518.076C870.656 516.767 878.088 523.385 880.953 536.511C887.177 565.024 860.813 610.052 831.893 615.739C784.44 620.994 808.858 530.352 857.063 518.076Z"/><path d="M852.921 538.562C875.743 537.244 862.913 587.962 834.125 595.455C832.29 595.478 830.481 595.018 828.88 594.121C817.191 587.688 824.476 566.719 829.854 558.099C835.486 549.072 842.252 541.22 852.921 538.562Z"/><path fill="white" d="M852.22 541.106C853.843 541.104 855.657 541.142 857.129 541.857C859.298 542.91 860.955 544.787 861.732 547.069C864.121 553.924 860.713 566.21 857.389 572.397C852.281 581.907 846.037 589.217 835.642 592.63C812.55 593.334 829.299 547.761 852.22 541.106Z"/><path d="M847.596 555.065C863.52 554.062 854.018 576.04 843.549 581.194C828.469 583.922 837.768 560.763 847.596 555.065Z"/><path fill="white" d="M848.153 556.933C849.021 556.932 849.761 556.919 850.615 557.17C851.831 557.518 852.843 558.363 853.403 559.496C856.434 565.763 848.806 576.302 842.867 579.248C830.613 578.546 841.795 561.007 848.153 556.933Z"/><path fill="#F7776D" d="M572.933 579.928C574.208 581.033 573.814 602.175 573.825 604.896C571.291 606.136 568.621 607.856 566.15 609.272C547.463 619.979 529.106 631.314 510.451 642.066L433.851 686.654C411.737 699.385 389.694 712.241 367.723 725.219C366.644 724.048 367.249 703.967 367.254 700.73C386.805 689.998 407.249 677.291 426.587 665.948L572.933 579.928Z"/><path fill="#B2B6C1" d="M91.556 700.025L91.9667 700.447C92.0847 700.965 92.5126 703.03 92.8191 703.224C104.649 710.705 130.426 725.337 141.802 732.082C194.413 763.635 247.235 794.837 300.263 825.686C304.811 828.285 304.989 833.437 313.722 834.95C321.807 836.35 324.79 837.187 332.392 832.961C341.311 838.217 349.087 840.097 335.177 846.384C312.526 855.629 298.33 841.852 279.35 830.728L215.442 792.834L123.14 737.837C111.524 730.902 99.9597 723.881 88.1366 717.293C86.6455 716.304 84.7579 714.988 83.7809 713.46C79.7236 707.117 87.2168 702.698 91.556 700.025Z"/><path fill="#D7D6D5" d="M613.562 497.399C631.404 507.352 649.086 517.592 666.599 528.113C666.8 550.565 666.86 573.017 666.779 595.469C665.291 595.03 655.492 589.052 653.641 587.954C640.081 580.047 626.661 571.901 613.39 563.519C613.286 541.479 613.343 519.438 613.562 497.399Z"/><path fill="white" d="M609.438 401.894L609.797 402.037C610.698 403.219 610.491 405.875 610.588 407.681C621.512 414.873 636.663 423.214 648.112 430.021C652.717 432.75 657.308 435.502 661.884 438.279C664.343 439.801 668.495 443.274 671.21 442.9L671.495 441.802C669.649 436.848 669.956 421.253 670.243 415.507C675.747 445.003 680.1 476.779 680.721 506.812C681.175 528.753 679.877 550.879 680.002 572.841C680.042 579.941 680.257 587.863 679.578 594.876C676.964 597.16 672.944 601.03 670.068 597.045C669.619 593.578 669.758 532.343 670.245 530.806C671.188 530.959 672.062 531.127 672.999 531.315C673.686 530.317 673.446 530.885 673.336 529.424C670.492 526.083 640.333 509.206 634.25 505.556C615.695 495.021 591.73 481.334 573.807 469.587C573.6 465.67 573.353 462.537 572.871 458.65C601.102 476.45 629.699 493.664 658.642 510.28C661.028 511.678 667.118 516.462 669.211 516.224C672.138 511.527 667.578 459.226 670.8 456.643C671.913 456.77 673 456.946 674.096 457.176L674.35 456.328C672.833 452.768 605.836 415.418 596.957 409.74C599.799 407.554 606.097 403.975 609.438 401.894Z"/><path fill="#D7D6D5" d="M613.441 422.792C630.155 433.24 649.412 443.78 666.599 454.146L666.865 511.694C649.159 500.797 631.107 490.935 613.399 479.568L613.441 422.792Z"/><path fill="#D7D6D5" d="M574.408 473.548C586.315 480.338 598.817 488.299 610.487 495.565L610.491 561.757C599.169 555.166 587.993 548.327 576.971 541.245L575.33 499.224C575.031 492.677 574.008 479.624 574.408 473.548Z"/><path fill="#D7D6D5" d="M593.255 411.475C594.771 411.807 608.386 419.975 610.462 421.206C610.589 440.065 610.619 458.924 610.554 477.783L596.716 469.553L572.568 454.392C572.163 446.02 571.097 433.382 570.078 425.088C577.63 420.452 585.582 415.947 593.255 411.475Z"/><path fill="#D7D6D5" d="M658.81 373.49C659.782 374.815 661.471 379.681 662.047 381.39C668.519 400.592 666.16 418.09 667.233 438.115C659.58 432.816 647.152 425.897 638.768 420.905C630.322 415.994 621.935 410.537 613.528 405.822C613.6 403.802 613.528 401.721 613.491 399.696L658.81 373.49Z"/><path fill="#81899E" d="M82.885 717.643C85.2215 718.588 96.7014 725.521 99.453 727.137L137.844 750.015L266.257 826.226C282.102 835.586 297.694 847.41 315.384 852.309C328.275 855.879 334.032 848.192 343.255 846.813L343.959 847.451C343.958 849.589 344.249 849.031 343.281 850.662C335.138 855.205 327.761 860.163 318.181 859.282C311.662 858.683 308.097 857.846 302.362 854.718C290.839 848.432 279.443 841.515 268.149 834.827L204.104 796.687L121.998 748.045C113.539 743.012 89.2282 730.197 83.8842 723.972L82.885 717.643Z"/><defs><linearGradient id="gradient_0" gradientUnits="userSpaceOnUse" x1="889.0379" y1="561.58997" x2="796.24554" y2="547.67682"><stop offset="0" stop-color="#7D8199"/><stop offset="1" stop-color="#9AA0B4"/></linearGradient></defs><path fill="url(#gradient_0)" d="M861.886 501.158C876.165 499.274 887.096 511.145 892.556 523.009C894.653 527.567 894.154 535.385 893.574 540.352L884.013 536.452C877.955 515.314 863.369 509.365 843.937 520.245C825.929 530.329 811.977 550.515 806.281 570.208C802.464 584.182 801.885 593.599 806.603 607.181L787.081 596.245C790.083 594.26 793.666 592.36 796.844 590.582C798.097 578.766 801.689 561.893 804.894 550.15C805.623 547.478 809.94 541.463 811.565 539.077C822.732 522.676 841.577 504.598 861.886 501.158Z"/><path fill="#81899E" d="M474.529 732.185C479.629 731.758 484.738 732.898 489.174 735.452C497.635 740.251 501.825 748.325 504.179 757.397C502.483 758.732 499.827 760.381 497.971 761.614C489.64 733.356 461.099 742.601 445.609 758.28C428.444 775.655 417.958 795.276 417.321 819.96C417.261 828.768 418.263 833.828 423.779 840.89C415.149 836.236 405.224 829.966 396.154 824.952C410.789 816.504 408.372 812.067 412.677 797.545C420.456 771.304 444.693 735.188 474.529 732.185Z"/><path fill="#81899E" d="M933.098 474.411L933.592 474.616C935.202 477.702 933.912 503.918 932.745 508.486C930.165 518.589 920.214 522.163 912.227 527.132C907.619 529.998 902.748 533.647 898.08 536.364C898.077 532.499 898.079 526.763 897.576 523.057C896.315 513.76 895.09 508.986 895.593 499.546C898.88 495.935 926.277 479.288 933.098 474.411Z"/><path fill="white" d="M309.314 677.253C317.356 679.97 323.309 681.199 331.657 679.339C331.626 686.349 331.799 736.614 330.332 738.552C321.857 742.215 314.9 740.223 308.327 734.023L309.314 677.253Z"/><path fill="white" d="M671.65 365.795C677.878 368.312 686.29 405.842 687.716 413.689C700.84 486.271 702.273 560.485 691.96 633.519L691.237 633.75C689.559 633.017 687.455 631.798 685.803 630.906C686.502 620.749 688.19 610.691 689.391 600.57C690.655 589.049 691.702 577.506 692.533 565.946C695.262 523.772 693.492 481.427 687.253 439.628C685.079 424.106 682.605 408.843 679.192 393.516C678.076 388.506 670.628 368.398 671.65 365.795Z"/><path fill="white" d="M106.58 546.041C110.532 547.814 115.402 550.467 119.343 552.469C116.949 565.708 115.014 577.976 113.613 591.387C112.735 599.788 113.079 610.011 112.033 617.649L111.269 617.996L109.792 617.248C105.238 614.543 99.6795 610.82 95.3202 607.844C94.0708 591.101 102.39 563.201 106.58 546.041Z"/><path fill="white" d="M914.091 422.977C923.458 429.036 930.183 459.165 932.556 470.019C928.313 473.005 924.087 476.014 919.877 479.047C918.878 478.607 914.606 466.807 913.626 464.62C904.829 444.976 892.481 438.398 914.091 422.977Z"/><path fill="white" d="M683.892 633.904C685.656 634.174 687.6 635.87 689.13 636.972C672.875 647.385 655.538 657.421 638.917 667.233L579.773 702.488L576.294 704.506L576.51 697.113C580.71 694.847 585.128 692.241 589.21 689.764C620.479 670.79 652.619 652.814 683.892 633.904Z"/><path fill="white" d="M307.171 800.225C316.165 805.707 319.83 808.117 330.19 804.324C330.374 811.429 329.966 822.838 329.562 829.923C322.633 835.58 313.759 831.548 306.937 827.971C306.868 818.814 307.076 809.4 307.171 800.225Z"/><path fill="#81899E" d="M823.811 415.946C827.433 418.013 839.614 423.048 840.586 426.332C841.535 429.536 841.38 447.792 840.624 450.608L839.344 451.124L834.567 453.157C829.854 451.865 827.751 451.095 823.698 448.407C822.625 440.516 822.937 423.722 823.811 415.946Z"/><path fill="white" d="M307.565 757.816C316.369 763.685 320.32 765.678 330.805 762.396C330.481 768.506 330.612 775.921 330.572 782.128C320.21 785.975 316.316 782.675 307.479 777.379L307.565 757.816Z"/><path fill="white" d="M95.2135 676.363C101.125 679.659 106.913 683.17 112.567 686.889C112.624 694.865 112.602 702.841 112.501 710.816C106.743 707.797 101.593 704.541 95.5822 701.543C94.8673 694.385 95.1722 683.825 95.2135 676.363Z"/><path fill="#F7776D" d="M307.916 737.391C317.049 742.932 320.559 744.618 331.062 741.321L331.01 759.128C320.895 763.512 316.204 760.783 307.768 754.834L307.916 737.391Z"/><path fill="#F7776D" d="M307.463 780.308C308.01 780.628 308.56 780.945 309.111 781.259C317.387 785.97 321.036 787.388 330.272 784.856C330.132 790.224 330.232 795.86 330.246 801.25C320.878 805.733 314.773 802.33 307.069 796.557C307.241 791.142 307.372 785.725 307.463 780.308Z"/><path fill="#F7776D" d="M95.0744 653.712C100.54 656.949 107.49 661.069 112.479 664.807L112.501 683.816C106.615 680.429 101.364 677.025 95.2516 673.627C94.9599 667.489 95.1112 659.958 95.0744 653.712Z"/><path fill="#F7776D" d="M94.9991 610.415C101.208 614.092 104.585 617.441 112.003 620.991L112.021 640.789C107.146 638.394 100.299 633.775 95.0678 630.878L94.9991 610.415Z"/><path fill="white" d="M95.1571 633.808C100.943 637.11 106.694 640.475 112.407 643.901L112.48 661.39C106.783 657.727 101.118 654.63 95.4207 650.78L95.1571 633.808Z"/><path fill="#6E7593" d="M808.59 381.326C814.216 384.533 827.353 396.951 832.799 401.849C829.655 403.318 828.783 403.668 826.041 405.853C824.743 407.727 823.448 411.052 822.496 413.231C818.014 397.743 817.561 394.477 808.59 381.326Z"/><path fill="#B2B6C1" d="M798.281 561.381C798.512 563.935 794.091 584.289 793.282 588.851L782.485 595.012C782.468 591.647 796.008 565.344 798.281 561.381Z"/><path fill="#81899E" d="M826.634 411.269C830.678 412.304 839.216 416.301 842.7 418.683C850.143 423.773 847.041 435.843 847.609 443.508C847.802 446.113 847.788 448.262 846.062 450.331L844.806 450.373C843.391 447.921 845.02 431.108 844.551 427.491C843.492 419.316 832.426 417.494 827.007 413.435C826.38 412.965 826.636 412.392 826.634 411.269Z"/><path fill="#484453" d="M702.401 547.283C701.747 544.72 701.52 532.14 701.842 529.312C702.781 531.534 703.149 539.714 702.86 542.264C702.634 544.047 702.501 545.489 702.401 547.283Z"/><path fill="#D7D6D5" d="M702.401 547.283C702.501 545.489 702.634 544.047 702.86 542.264C703.273 545.425 703.683 548.381 703.879 551.567C702.559 554.327 703.349 555.985 702.553 558.73L702.401 547.283Z"/><path d="M240.599 109.624C241.125 109.585 241.652 109.551 242.179 109.523C265.936 108.323 275.061 129.076 274.573 149.379C274.379 157.419 274.583 166.712 274.911 174.751C279.117 178.242 283.711 180.08 288.454 184.405C288.698 217.163 289.231 254.282 288.349 286.807C285.667 289.595 266.597 300.143 261.508 303.127L204.952 336.317C199.395 339.658 193.951 342.96 188.262 346.078C180.581 341.923 173.311 337.047 166.552 331.516C167.302 297.173 166.547 262.871 166.921 228.534C170.206 226.015 174.882 223.247 178.565 221.349C180.523 188.801 174.25 173.597 195.944 142.346C206.593 127.006 221.626 113.148 240.599 109.624Z"/><path fill="white" d="M284.327 186.987C285.491 189.58 284.874 277.593 284.869 285.135C275.707 291.044 265.268 296.747 255.747 302.399C234.003 315.42 212.162 328.278 190.225 340.972C189.929 328.917 190.363 315.579 190.38 303.39L190.004 242.455C197.781 238.469 206.552 232.742 214.178 228.127C228.14 219.7 242.148 211.349 256.202 203.077C265.154 197.785 275.13 191.579 284.327 186.987Z"/><path d="M242.11 237.547C257.226 236.434 255.286 250.467 249.22 259.74C249.424 269.599 249.495 279.46 249.434 289.321C246.94 291.213 237.374 296.503 234.094 298.442L229.362 301.334C228.598 293.584 228.984 279.911 228.986 271.761C222.68 269.246 222.564 264.16 224.616 258.196C227.84 248.824 233.225 242.122 242.11 237.547Z"/><path fill="#F7776D" d="M241.665 240.592C255.822 239.081 252.274 250.99 246.929 258.852C247.201 268.416 247.091 278.504 247.136 288.108C242.44 290.436 239.031 292.685 234.706 295.562L231.364 297.517C231.195 293.457 231.6 270.052 230.382 268.165C228.936 268.035 228.213 268.081 226.91 267.407C222.611 258.308 233.995 244.847 241.665 240.592Z"/><path fill="white" d="M241.313 112.127C271.03 108.222 274.006 143.967 272.202 163.795C271.846 167.705 272.289 173.641 272.542 177.633C275.09 179.952 279.079 181.643 282.429 184.229C256.507 198.188 226.931 216.471 201.72 231.95C197.519 234.504 192.139 237.981 187.801 240.034C182.122 236.724 176.188 232.966 170.546 229.539C172.238 228.518 176.732 225.776 178.401 225.648C178.795 226.936 178.934 227.803 179.816 228.825C182.563 227.175 181.506 218.379 181.613 214.769C182.054 205.448 180.744 194.345 181.798 185.224C185.203 155.743 210.677 117.316 241.313 112.127Z"/><path d="M239.511 129.083C258.263 128 258.059 143.72 257.968 157.492L257.761 174.943C257.713 178.929 257.127 183.536 259.416 186.727C263.06 188.614 267.356 183.034 272.816 182.085L272.84 182.739C270.499 185.294 265.013 189.593 261.411 189.888C258.659 190.113 256.734 187.888 254.913 186.062C244.206 192.839 232.234 199.689 221.287 206.236C215.458 209.795 205.641 215.282 199.775 219.397C199.521 219.575 197.97 224.239 197.105 225.665L196.374 225.697C195.463 224.148 195.76 198.751 195.557 195.275C194.035 169.083 213.244 135.808 239.511 129.083Z"/><path fill="white" d="M241.638 131.591C257.393 131.621 255.32 150.906 255.295 161.621C255.279 168.561 255.226 175.511 255.184 182.449C250.474 184.512 241.397 190.275 236.743 193.084C226.959 199.003 217.138 204.859 207.28 210.654C204.473 212.28 201.567 214.163 198.803 215.891C197.394 193.186 197.057 173.768 210.608 154.522C218.315 143.576 228.135 134.251 241.638 131.591Z"/><path fill="white" d="M170.022 233.573C174.401 235.471 182.657 240.754 186.893 243.341C187.114 275.999 187.141 308.657 186.973 341.315C181.466 338.479 175.045 333.619 170.02 329.896L170.022 233.573Z"/><path d="M811.651 90.6384C812.529 90.8877 813.657 91.0914 813.891 92.2317C814.629 95.9954 815.392 99.5747 816.435 103.284C823.347 127.886 836.619 151.011 855.724 168.139C859.03 171.103 864.7 173.698 868.568 176.04C873.409 178.97 879.167 181.056 883.3 185.014C884.41 186.087 885.088 187.762 885.168 189.308C885.692 199.478 885.39 209.976 885.44 220.149C885.538 239.958 885.234 259.72 885.488 279.522C885.513 281.521 885.58 284.503 884.098 285.957C879.536 285.127 849.935 268.39 844.238 264.824C834.289 277.475 824.761 284.79 809.442 289.631C807.653 290.004 807.667 290.063 805.758 289.853C802.655 287.187 799.303 279.998 797.191 276.261C787.396 258.933 780.054 242.056 773.508 223.228C764.723 218.67 743.15 207.634 735.88 202.608L735.663 131.154C735.608 121.608 735.492 111.954 735.57 102.4C735.592 99.7171 735.478 98.0444 737.972 96.7932C741.347 96.8554 765.091 111.946 771.113 114.375C791.004 122.396 804.04 107.373 811.651 90.6384Z"/><path fill="white" d="M811.745 98.9464C819.93 128.569 833.634 153.736 856.973 173.795C857.108 173.912 857.359 175.156 857.381 175.43C857.501 181.216 857.761 191.128 857.11 196.714C856.871 214.24 852.734 240.954 844.845 256.306C836.371 272.798 824.376 281.208 807.291 286.833C776.259 237.137 761.999 185.721 761.477 127.224L761.391 121.55C761.383 118.993 761.324 116.232 761.374 113.693C771.153 118.284 778.913 122.374 790.191 118.333C800.139 114.769 806.178 107.449 811.745 98.9464Z"/><path fill="white" d="M811.745 98.9464C819.93 128.569 833.634 153.736 856.973 173.795C857.108 173.912 857.359 175.156 857.381 175.43C855.938 175.367 770.439 125.77 761.391 121.55C761.383 118.993 761.324 116.232 761.374 113.693C771.153 118.284 778.913 122.374 790.191 118.333C800.139 114.769 806.178 107.449 811.745 98.9464Z"/><path fill="#F7776D" d="M761.391 121.55C770.439 125.77 855.938 175.367 857.381 175.43C857.501 181.216 857.761 191.128 857.11 196.714C856.928 192.347 857.158 186.531 857.201 182.057C846.461 176.942 833.658 169.105 823.255 162.996C803.016 151.113 781.286 139.627 761.477 127.224L761.391 121.55Z"/><path fill="#F7776D" d="M780.092 189.195C785.099 192.187 796.75 217.832 800.47 224.745C806.303 219.611 831.013 192.17 835.457 192.054C837.498 193.302 838.408 195.046 838.953 197.283C838.655 198.853 837.465 199.708 836.283 200.896C830.111 206.728 806.069 232.188 801.056 234.937L800.127 234.615C796.2 230.637 780.061 198.805 778.006 192.3C778.371 190.215 778.161 190.929 780.092 189.195Z"/><path fill="white" d="M860.982 175.998C865.976 178.074 877.35 184.372 881.895 187.258C882.8 217.155 882.586 252.264 881.977 282.101L872.774 277.158C864.04 272.058 854.722 267.242 845.774 262.469C859.124 235.849 860.642 205.155 860.982 175.998Z"/><path fill="white" d="M738.882 100.144C744.726 102.941 753.183 108.271 758.782 111.652C757.249 119.213 758.106 126.728 758.288 134.366C759.002 164.365 763.606 188.615 771.403 217.386L770.796 217.926C761.116 212.828 748.202 206.416 739.074 200.782L738.882 100.144Z"/><path d="M936.443 559.254C940.173 560.181 966.1 574.668 967.479 577.552C965.061 579.649 957.628 583.924 954.467 585.823L927.524 601.887L830.813 659.447L477.347 869.108L370.676 932.019C354.884 941.36 329.606 955.402 314.985 965.679C295.117 954.686 274.421 942.033 254.715 930.474L137.861 861.674L80.9848 828.446C74.2353 824.488 58.3811 815.617 52.8329 811.253C57.7134 807.541 67.0762 802.366 72.4725 799.215C82.949 793.129 93.3852 786.974 103.781 780.751C106.048 779.392 108.205 777.75 110.885 778.366C109.795 780.709 62.8155 807.856 57.0465 811.29C114.687 845.605 172.503 879.625 230.49 913.351C257.698 929.1 286.978 947.641 314.592 962.189C320.242 959.533 330.971 952.872 336.6 949.538L378.072 924.882L522.349 839.691L763.593 696.552C829.837 657.345 898.389 617.566 963.839 577.2C956.326 571.914 945.3 567.243 937.474 562.012C936.274 561.21 936.594 560.834 936.443 559.254Z"/><path d="M454.199 112.539C470.533 110.844 465.078 134.675 450.218 140.624C434.141 142.593 438.835 119.338 454.199 112.539Z"/><path fill="white" d="M454.101 114.994C455.432 114.908 456.82 114.841 458.103 115.312C459.644 115.878 460.864 117.083 461.448 118.617C464.165 125.709 456.701 135.544 449.839 138.106C435.575 137.542 444.339 119.663 454.101 114.994Z"/><path d="M344.488 87.5887C345.683 88.013 345.286 87.7806 346.194 88.6581C346.876 91.8955 346.559 98.5112 346.511 102.015C349.042 100.669 358.135 95.4727 360.322 96.329C358.184 99.0691 349.934 103.092 346.502 104.922C346.519 108.652 347.327 119.39 345.2 121.871L344.346 120.996C343.584 118.419 343.943 109.274 343.983 106.247C341.67 107.346 332.22 113.216 330.233 112.029C332.578 109.065 340.363 105.365 343.997 103.449C344.017 99.3916 343.761 91.1332 344.488 87.5887Z"/><path d="M604.851 105.623C605.248 105.855 605.747 106.271 606.128 106.562C606.824 109.668 606.578 117.295 606.57 120.684C609.962 119.146 619.74 113.12 622.182 112.655L622.783 113.353C621.267 115.864 609.918 121.49 606.752 123.21L606.716 138.125C606.66 139.496 606.719 139.417 605.919 140.52L605.071 140.358C603.705 137.343 604.139 128.274 604.169 124.529C599.723 126.744 595.115 129.779 590.272 130.927L590.723 130.734L590.735 129.932C594.432 126.8 599.84 124.14 604.194 121.838C604.223 117.762 604.049 109.226 604.851 105.623Z"/><path d="M75.5229 378.618C76.2344 378.828 76.48 378.999 77.145 379.332C78.4018 382.35 78.5039 389.543 78.7045 392.995C83.0181 390.621 85.135 388.676 90.0202 387.514L90.5444 387.893C88.53 390.981 82.4973 393.713 79.0883 395.444C79.5365 399.646 80.3826 404.762 80.2172 409C80.1579 410.519 79.2622 410.766 78.1516 411.487C77.2829 409.423 76.8818 399.728 76.6879 396.91C72.892 398.735 66.3411 403.208 62.4483 403.548C63.212 400.672 73.5956 395.773 76.5706 394.193C75.8855 389.057 75.33 383.794 75.5229 378.618Z"/><path d="M386.809 210.453L387.698 210.474L388.164 210.974C387.049 213.463 367.792 223.473 363.923 225.595L362.99 225.354L362.821 224.456C364.7 222.195 382.955 212.567 386.809 210.453Z"/><path d="M673.257 800.362L674.582 800.61L674.754 801.438C673.381 803.786 666.607 807.108 663.862 808.615L662.696 808.48L662.157 807.715C663.032 805.51 670.718 801.768 673.257 800.362Z"/><path d="M797.124 727.395L798.25 727.59L798.683 728.506C797.826 730.789 790.69 734.342 788.195 735.761L787.059 735.141L786.862 734.241C788.347 731.994 794.598 728.827 797.124 727.395Z"/><path d="M647.123 815.392C648.02 815.8 647.606 815.476 648.229 816.516C647.543 818.703 640.341 822.213 637.896 823.579L636.722 823.412L636.376 822.525C637.516 820.14 644.41 816.861 647.123 815.392Z"/><path d="M723.375 770.955L724.405 771.356L724.337 772.361C721.659 775.165 717.647 777.236 714.24 779.088C713.441 778.42 713.717 778.723 713.27 777.713C714.136 775.118 720.674 772.338 723.375 770.955Z"/><path d="M621.804 830.453C622.413 831.102 622.237 831.038 622.544 831.998C621.637 834.264 614.667 837.578 612.18 838.914C611.504 837.899 611.7 838.339 611.587 837.047C613.179 834.903 619.299 831.833 621.804 830.453Z"/><path d="M698.36 785.96C699.306 786.093 698.859 785.895 699.637 786.682C698.588 789.061 692.163 792.162 689.638 793.561L688.553 793.312L688.087 792.471C689.033 790.127 695.766 787.247 698.36 785.96Z"/><path d="M570.969 859.401L571.61 859.59L572.036 860.507C571.062 862.854 564.097 866.202 561.506 867.618C560.718 867.248 561.057 867.401 560.455 866.497C561.21 864.355 568.599 860.718 570.969 859.401Z"/><path d="M596.381 844.908L597.241 845.398L597.376 846.458C595.569 849.005 590.455 851.557 587.644 853.105C587.055 852.688 587.14 852.633 586.71 851.982C587.707 849.405 593.673 846.49 596.381 844.908Z"/><path d="M821.099 713.841C822.225 713.984 821.832 713.843 822.758 714.515L822.563 715.523C820.541 717.483 816.788 719.564 814.272 721.094C813.545 721.445 813.995 721.311 812.875 721.283L812.366 720.214C813.319 717.744 818.511 715.32 821.099 713.841Z"/><path d="M771.654 742.338L772.7 742.669L773.12 743.522C772.329 745.81 765.972 748.712 763.718 749.913C762.844 749.83 763.275 749.998 762.522 749.21C763.274 746.908 769.193 743.84 771.654 742.338Z"/><path d="M746.741 756.935L747.572 756.98L748.039 757.767C747.473 759.912 741.256 763.039 739.203 764.236C737.925 763.853 738.43 764.216 737.663 763.181C738.645 760.867 744.207 758.323 746.741 756.935Z"/><path d="M352.267 229.412L353.385 229.61L353.534 230.501C352.18 232.387 351.293 232.794 349.328 234.14L348.117 233.419L347.985 232.515C348.991 231.07 350.699 230.31 352.267 229.412Z"/></svg>